<svg width="75" height="64" viewBox="0 0 75 64" fill="none" xmlns="http://www.w3.org/2000/svg">
<path fill-rule="evenodd" clip-rule="evenodd" d="M38.5 10.1591C37.8303 10.1591 37.1847 10.4402 35.3425 11.3129L32.4943 12.6622C31.6836 13.0463 31.1757 13.2896 30.8573 13.5C31.1757 13.7104 31.6836 13.9537 32.4943 14.3378L33.5686 14.8467L41.2148 11.1039C39.7059 10.3946 39.113 10.1591 38.5 10.1591ZM43.4314 12.1532L35.7852 15.8961C37.2941 16.6054 37.887 16.8409 38.5 16.8409C39.1697 16.8409 39.8153 16.5598 41.6575 15.6871L44.5057 14.3378C45.3164 13.9537 45.8243 13.7104 46.1427 13.5C45.8243 13.2896 45.3164 13.0463 44.5057 12.6622L43.4314 12.1532ZM34.6909 9.50066C36.2555 8.7585 37.3275 8.25 38.5 8.25C39.6725 8.25 40.7445 8.7585 42.3091 9.50066C42.3742 9.53152 42.4401 9.56279 42.5069 9.59444L45.4212 10.975C46.146 11.3183 46.785 11.621 47.2346 11.9183C47.6847 12.216 48.25 12.7042 48.25 13.5C48.25 14.2958 47.6847 14.784 47.2346 15.0817C46.785 15.379 46.146 15.6817 45.4212 16.025L42.5069 17.4056C42.4401 17.4372 42.3742 17.4685 42.3091 17.4993C40.7445 18.2415 39.6725 18.75 38.5 18.75C37.3275 18.75 36.2555 18.2415 34.6909 17.4993C34.6258 17.4685 34.5599 17.4372 34.4931 17.4056L31.6449 16.0563C31.6228 16.0458 31.6007 16.0354 31.5788 16.0249C30.854 15.6817 30.215 15.379 29.7654 15.0817C29.3153 14.784 28.75 14.2958 28.75 13.5C28.75 12.7042 29.3153 12.216 29.7654 11.9183C30.215 11.621 30.854 11.3183 31.5788 10.9751C31.6007 10.9646 31.6228 10.9542 31.6449 10.9437L34.4931 9.59444C34.5599 9.56279 34.6258 9.53153 34.6909 9.50066Z" fill="#FB143C"/>
<path fill-rule="evenodd" clip-rule="evenodd" d="M26.75 20C26.75 19.4477 27.1977 19 27.75 19H30.75C31.3023 19 31.75 19.4477 31.75 20C31.75 20.5523 31.3023 21 30.75 21H27.75C27.1977 21 26.75 20.5523 26.75 20ZM26.75 23C26.75 22.4477 27.1977 22 27.75 22H30.75C31.3023 22 31.75 22.4477 31.75 23C31.75 23.5523 31.3023 24 30.75 24H27.75C27.1977 24 26.75 23.5523 26.75 23ZM26.75 26C26.75 25.4477 27.1977 25 27.75 25H30.75C31.3023 25 31.75 25.4477 31.75 26C31.75 26.5523 31.3023 27 30.75 27H27.75C27.1977 27 26.75 26.5523 26.75 26Z" fill="#FB143C"/>
<path d="M35.1941 28.7642C34.5811 28.5053 33.9874 28.2545 33.4301 28.0129C33.3207 27.9655 33.25 27.8575 33.25 27.7382V20.0009C33.25 18.6202 32.1307 17.5009 30.75 17.5009H29.05C28.8843 17.5009 28.75 17.3666 28.75 17.2009V13.5009C28.75 13.3921 28.7732 13.2887 28.8149 13.1953C28.8698 13.0724 29.0216 13.0452 29.1427 13.104L32.2314 14.6036L35.1526 16.0171C37.0204 16.921 37.7424 17.2509 38.5 17.2509C39.2576 17.2509 39.9796 16.921 41.8474 16.0171L44.7686 14.6036L47.8573 13.104C47.9784 13.0452 48.1302 13.0724 48.1851 13.1953C48.2268 13.2887 48.25 13.3921 48.25 13.5009V24.1622C48.25 25.2826 47.4327 26.0277 46.4267 26.6314C45.4083 27.2425 43.6989 27.9646 41.8058 28.7642C40.3868 29.3641 39.472 29.7509 38.5 29.7509C37.528 29.7509 36.6132 29.3641 35.1941 28.7642Z" fill="#FB143C"/>
<path d="M24.5456 52.976C24.0816 52.976 23.6496 52.908 23.2496 52.772C22.8496 52.644 22.4976 52.46 22.1936 52.22C21.8976 51.988 21.6656 51.708 21.4976 51.38C21.3296 51.052 21.2456 50.692 21.2456 50.3C21.2456 50.14 21.2576 49.928 21.2816 49.664C21.3136 49.4 21.3496 49.104 21.3896 48.776C21.4376 48.44 21.4896 48.1 21.5456 47.756L22.4696 47.888C22.3816 48.424 22.3096 48.912 22.2536 49.352C22.2056 49.792 22.1816 50.104 22.1816 50.288C22.1816 50.648 22.2816 50.964 22.4816 51.236C22.6816 51.516 22.9576 51.732 23.3096 51.884C23.6696 52.044 24.0816 52.124 24.5456 52.124H27.9416C28.5496 52.124 29.0096 51.956 29.3216 51.62C29.6416 51.284 29.8016 50.792 29.8016 50.144V49.748H30.7256V50.156C30.7256 50.708 30.6176 51.196 30.4016 51.62C30.1856 52.044 29.8696 52.376 29.4536 52.616C29.0456 52.856 28.5416 52.976 27.9416 52.976H24.5456ZM29.1056 50C28.8336 50 28.5576 49.972 28.2776 49.916C28.0056 49.86 27.7336 49.744 27.4616 49.568L27.9896 48.86C28.1016 48.932 28.2096 48.992 28.3136 49.04C28.4176 49.08 28.5336 49.108 28.6616 49.124C28.7896 49.14 28.9376 49.148 29.1056 49.148H31.3736V50H29.1056ZM31.3736 50V49.148C31.4776 49.148 31.5416 49.188 31.5656 49.268C31.5976 49.34 31.6136 49.44 31.6136 49.568C31.6136 49.696 31.5976 49.8 31.5656 49.88C31.5416 49.96 31.4776 50 31.3736 50ZM24.7016 55.16V54.08H25.6376V55.16H24.7016ZM26.3456 55.16V54.08H27.2816V55.16H26.3456ZM31.3711 50V49.148H33.0991L32.6671 49.496V44H33.6031V50H31.3711ZM31.3711 50C31.2671 50 31.2031 49.96 31.1791 49.88C31.1471 49.8 31.1311 49.696 31.1311 49.568C31.1311 49.44 31.1471 49.34 31.1791 49.268C31.2031 49.188 31.2671 49.148 31.3711 49.148V50ZM31.8511 42.92V41.84H32.7871V42.92H31.8511ZM33.4951 42.92V41.84H34.4311V42.92H33.4951ZM36.6463 50V49.148H38.1103V50H36.6463ZM35.7223 50V41.396H36.6463V50H35.7223ZM38.1103 50V49.148C38.2143 49.148 38.2783 49.188 38.3023 49.268C38.3343 49.34 38.3503 49.44 38.3503 49.568C38.3503 49.696 38.3343 49.8 38.3023 49.88C38.2783 49.96 38.2143 50 38.1103 50ZM40.3414 50V49.148H41.6374V50H40.3414ZM38.1094 50V49.148H39.8374L39.4054 49.496V44H40.3414V50H38.1094ZM38.1094 50C38.0054 50 37.9414 49.96 37.9174 49.88C37.8854 49.8 37.8694 49.696 37.8694 49.568C37.8694 49.44 37.8854 49.34 37.9174 49.268C37.9414 49.188 38.0054 49.148 38.1094 49.148V50ZM41.6374 50V49.148C41.7414 49.148 41.8054 49.188 41.8294 49.268C41.8614 49.34 41.8774 49.44 41.8774 49.568C41.8774 49.696 41.8614 49.8 41.8294 49.88C41.8054 49.96 41.7414 50 41.6374 50ZM39.4054 52.16V51.08H40.3414V52.16H39.4054ZM44.0247 50V49.148H45.3207V50H44.0247ZM43.0887 50V41.396H44.0247V50H43.0887ZM41.6367 50V49.148H43.0887V50H41.6367ZM41.6367 50C41.5327 50 41.4687 49.96 41.4447 49.88C41.4127 49.8 41.3967 49.696 41.3967 49.568C41.3967 49.44 41.4127 49.34 41.4447 49.268C41.4687 49.188 41.5327 49.148 41.6367 49.148V50ZM45.3207 50V49.148C45.4247 49.148 45.4887 49.188 45.5127 49.268C45.5447 49.34 45.5607 49.44 45.5607 49.568C45.5607 49.696 45.5447 49.8 45.5127 49.88C45.4887 49.96 45.4247 50 45.3207 50ZM45.3164 50V49.148H53.2724L52.4084 49.928V47.108C52.4084 46.604 52.3364 46.188 52.1924 45.86C52.0564 45.524 51.8484 45.272 51.5684 45.104C51.2964 44.936 50.9524 44.852 50.5364 44.852C50.1844 44.852 49.8564 44.912 49.5524 45.032C49.2564 45.144 48.9804 45.296 48.7244 45.488C48.4684 45.672 48.2284 45.88 48.0044 46.112C47.7884 46.336 47.5884 46.564 47.4044 46.796C47.2204 47.028 47.0524 47.24 46.9004 47.432L46.5884 46.58C46.8364 46.268 47.0884 45.96 47.3444 45.656C47.6004 45.352 47.8804 45.076 48.1844 44.828C48.4884 44.58 48.8324 44.38 49.2164 44.228C49.6004 44.076 50.0404 44 50.5364 44C51.1044 44 51.5684 44.096 51.9284 44.288C52.2964 44.48 52.5804 44.736 52.7804 45.056C52.9884 45.368 53.1324 45.704 53.2124 46.064C53.2924 46.424 53.3324 46.772 53.3324 47.108V50H45.3164ZM46.1084 49.148V41.396H47.0444V49.148H46.1084ZM45.3164 50C45.2124 50 45.1484 49.96 45.1244 49.88C45.0924 49.8 45.0764 49.696 45.0764 49.568C45.0764 49.44 45.0924 49.34 45.1244 49.268C45.1484 49.188 45.2124 49.148 45.3164 49.148V50Z" fill="#FB143C"/>
</svg>
