<svg width="75" height="64" viewBox="0 0 75 64" fill="none" xmlns="http://www.w3.org/2000/svg">
<path d="M29.6449 10.3552C32.6259 8.52662 35.3001 9.25537 36.9156 10.4686C37.1814 10.6682 37.3638 10.8048 37.4996 10.897C37.6354 10.8048 37.8178 10.6682 38.0836 10.4686C39.6991 9.25537 42.3734 8.52662 45.3543 10.3552C47.4156 11.6195 48.5754 14.2606 48.1684 17.2951C47.7595 20.3443 45.7859 23.7929 41.6063 26.8865C40.1549 27.9614 39.0897 28.7503 37.4996 28.7503C35.9095 28.7503 34.8443 27.9614 33.3929 26.8865C29.2133 23.7929 27.2398 20.3443 26.8308 17.2951C26.4238 14.2606 27.5837 11.6195 29.6449 10.3552Z" fill="#FB143C"/>
<path d="M19.0876 50C18.3916 50 17.8476 49.896 17.4556 49.688C17.0716 49.472 16.7996 49.144 16.6396 48.704C16.4876 48.256 16.4116 47.688 16.4116 47C16.4116 46.312 16.4876 45.748 16.6396 45.308C16.7996 44.86 17.0716 44.532 17.4556 44.324C17.8476 44.108 18.3916 44 19.0876 44H21.5716V49.52H20.6356V44.444L21.1156 44.852H19.0876C18.6236 44.852 18.2636 44.908 18.0076 45.02C17.7596 45.132 17.5876 45.344 17.4916 45.656C17.3956 45.96 17.3476 46.408 17.3476 47C17.3476 47.592 17.3956 48.044 17.4916 48.356C17.5876 48.66 17.7596 48.868 18.0076 48.98C18.2636 49.092 18.6236 49.148 19.0876 49.148H22.8676V50H19.0876ZM22.8676 50V49.148C22.9716 49.148 23.0356 49.188 23.0596 49.268C23.0916 49.34 23.1076 49.44 23.1076 49.568C23.1076 49.696 23.0916 49.8 23.0596 49.88C23.0356 49.96 22.9716 50 22.8676 50ZM17.9236 42.92V41.84H18.8596V42.92H17.9236ZM19.5676 42.92V41.84H20.5036V42.92H19.5676ZM25.2571 50V49.148H26.5531V50H25.2571ZM24.3211 50V41.396H25.2571V50H24.3211ZM22.8691 50V49.148H24.3211V50H22.8691ZM22.8691 50C22.7651 50 22.7011 49.96 22.6771 49.88C22.6451 49.8 22.6291 49.696 22.6291 49.568C22.6291 49.44 22.6451 49.34 22.6771 49.268C22.7011 49.188 22.7651 49.148 22.8691 49.148V50ZM26.5531 50V49.148C26.6571 49.148 26.7211 49.188 26.7451 49.268C26.7771 49.34 26.7931 49.44 26.7931 49.568C26.7931 49.696 26.7771 49.8 26.7451 49.88C26.7211 49.96 26.6571 50 26.5531 50ZM35.4888 50V49.148H36.7848V50H35.4888ZM26.5488 50V49.148H35.4168L34.5528 49.928V47.108C34.5528 46.604 34.4808 46.188 34.3368 45.86C34.2008 45.524 33.9928 45.272 33.7128 45.104C33.4408 44.936 33.0968 44.852 32.6808 44.852C32.3288 44.852 32.0008 44.912 31.6968 45.032C31.4008 45.144 31.1248 45.296 30.8688 45.488C30.6128 45.672 30.3728 45.88 30.1488 46.112C29.9328 46.336 29.7328 46.564 29.5488 46.796C29.3648 47.028 29.1968 47.24 29.0448 47.432L28.7448 46.58C28.9448 46.332 29.1448 46.084 29.3448 45.836C29.5528 45.588 29.7688 45.356 29.9928 45.14C30.2168 44.916 30.4608 44.72 30.7248 44.552C30.9968 44.384 31.2928 44.252 31.6128 44.156C31.9328 44.052 32.2928 44 32.6928 44C33.2608 44 33.7248 44.096 34.0848 44.288C34.4528 44.48 34.7368 44.736 34.9368 45.056C35.1448 45.368 35.2888 45.704 35.3688 46.064C35.4488 46.424 35.4888 46.772 35.4888 47.108V50H26.5488ZM28.2528 49.148V44H29.1888V49.148H28.2528ZM26.5488 50C26.4448 50 26.3808 49.96 26.3568 49.88C26.3248 49.8 26.3088 49.696 26.3088 49.568C26.3088 49.44 26.3248 49.34 26.3568 49.268C26.3808 49.188 26.4448 49.148 26.5488 49.148V50ZM36.7848 50V49.148C36.8888 49.148 36.9528 49.188 36.9768 49.268C37.0088 49.34 37.0248 49.44 37.0248 49.568C37.0248 49.696 37.0088 49.8 36.9768 49.88C36.9528 49.96 36.8888 50 36.7848 50ZM31.5288 42.932V41.852H32.4648V42.932H31.5288ZM43.1513 50V49.148H44.4473V50H43.1513ZM36.7793 50V49.148H42.8393L42.2153 49.688V44.444L42.7073 44.852H40.6673C40.2033 44.852 39.8433 44.908 39.5873 45.02C39.3393 45.132 39.1673 45.344 39.0713 45.656C38.9753 45.96 38.9273 46.408 38.9273 47C38.9273 47.592 38.9753 48.044 39.0713 48.356C39.1673 48.66 39.3393 48.868 39.5873 48.98C39.8433 49.092 40.2033 49.148 40.6673 49.148V49.76C39.9713 49.76 39.4273 49.676 39.0353 49.508C38.6513 49.332 38.3793 49.044 38.2193 48.644C38.0673 48.236 37.9913 47.688 37.9913 47C37.9913 46.312 38.0673 45.748 38.2193 45.308C38.3793 44.86 38.6513 44.532 39.0353 44.324C39.4273 44.108 39.9713 44 40.6673 44H43.1513V50H36.7793ZM36.7793 50C36.6753 50 36.6113 49.96 36.5873 49.88C36.5553 49.8 36.5393 49.696 36.5393 49.568C36.5393 49.44 36.5553 49.34 36.5873 49.268C36.6113 49.188 36.6753 49.148 36.7793 49.148V50ZM44.4473 50V49.148C44.5513 49.148 44.6153 49.188 44.6393 49.268C44.6713 49.34 44.6873 49.44 44.6873 49.568C44.6873 49.696 44.6713 49.8 44.6393 49.88C44.6153 49.96 44.5513 50 44.4473 50ZM40.3793 42.92V41.84H41.3153V42.92H40.3793ZM51.2474 50V49.148H52.5434V50H51.2474ZM44.4434 50V49.148H51.0074L50.3114 49.64V47.06C50.3114 46.5 50.2474 46.06 50.1194 45.74C49.9914 45.42 49.7714 45.192 49.4594 45.056C49.1554 44.92 48.7394 44.852 48.2114 44.852C47.8754 44.852 47.5394 44.876 47.2034 44.924C46.8754 44.972 46.6194 45.036 46.4354 45.116L46.9994 44.54C46.9514 44.732 46.9034 44.976 46.8554 45.272C46.8074 45.56 46.7674 45.872 46.7354 46.208C46.7034 46.544 46.6874 46.88 46.6874 47.216C46.6874 47.56 46.7034 47.896 46.7354 48.224C46.7674 48.552 46.8034 48.836 46.8434 49.076C46.8834 49.316 46.9154 49.484 46.9394 49.58L46.0514 49.832C46.0194 49.728 45.9794 49.548 45.9314 49.292C45.8914 49.036 45.8514 48.728 45.8114 48.368C45.7794 48.008 45.7634 47.624 45.7634 47.216C45.7634 46.824 45.7794 46.444 45.8114 46.076C45.8514 45.7 45.8954 45.36 45.9434 45.056C45.9994 44.752 46.0514 44.508 46.0994 44.324C46.2754 44.252 46.5554 44.18 46.9394 44.108C47.3234 44.036 47.7474 44 48.2114 44C48.8834 44 49.4434 44.1 49.8914 44.3C50.3474 44.5 50.6874 44.824 50.9114 45.272C51.1354 45.712 51.2474 46.308 51.2474 47.06V50H44.4434ZM44.4434 50C44.3394 50 44.2754 49.96 44.2514 49.88C44.2194 49.8 44.2034 49.696 44.2034 49.568C44.2034 49.44 44.2194 49.34 44.2514 49.268C44.2754 49.188 44.3394 49.148 44.4434 49.148V50ZM52.5434 50V49.148C52.6474 49.148 52.7114 49.188 52.7354 49.268C52.7674 49.34 52.7834 49.44 52.7834 49.568C52.7834 49.696 52.7674 49.8 52.7354 49.88C52.7114 49.96 52.6474 50 52.5434 50ZM53.993 50V41.396H54.929V50H53.993ZM52.541 50V49.148H53.993V50H52.541ZM52.541 50C52.437 50 52.373 49.96 52.349 49.88C52.317 49.8 52.301 49.696 52.301 49.568C52.301 49.44 52.317 49.34 52.349 49.268C52.373 49.188 52.437 49.148 52.541 49.148V50ZM56.9977 50V41.396H57.9217V50H56.9977Z" fill="#FB143C"/>
</svg>
