<svg width="75" height="64" viewBox="0 0 75 64" fill="none" xmlns="http://www.w3.org/2000/svg">
<path fill-rule="evenodd" clip-rule="evenodd" d="M32.0601 11.8893C29.5178 13.777 28.2466 14.7209 27.7474 16.1151C27.7073 16.227 27.6713 16.3403 27.6394 16.4548C27.2414 17.8827 27.727 19.4099 28.698 22.4643C29.6691 25.5187 30.1546 27.0459 31.2978 27.962C31.3895 28.0355 31.4838 28.1055 31.5805 28.172C32.7863 29 34.3575 29 37.5 29C40.6425 29 42.2137 29 43.4195 28.172C43.5162 28.1055 43.6105 28.0355 43.7022 27.962C44.8454 27.0459 45.3309 25.5187 46.302 22.4643C47.273 19.4099 47.7586 17.8827 47.3606 16.4548C47.3287 16.3403 47.2927 16.227 47.2526 16.1151C46.7534 14.7209 45.4822 13.777 42.9399 11.8893C40.3976 10.0016 39.1265 9.0577 37.6747 9.00327C37.5583 8.99891 37.4417 8.99891 37.3253 9.00327C35.8735 9.0577 34.6024 10.0016 32.0601 11.8893ZM35.5934 23.6821C35.1985 23.6821 34.8784 24.0093 34.8784 24.4129C34.8784 24.8164 35.1985 25.1436 35.5934 25.1436H39.4066C39.8015 25.1436 40.1216 24.8164 40.1216 24.4129C40.1216 24.0093 39.8015 23.6821 39.4066 23.6821H35.5934Z" fill="#FB143C"/>
<path d="M21.8357 50C21.1397 50 20.5957 49.896 20.2037 49.688C19.8197 49.472 19.5477 49.144 19.3877 48.704C19.2357 48.256 19.1597 47.688 19.1597 47C19.1597 46.312 19.2357 45.748 19.3877 45.308C19.5477 44.86 19.8197 44.532 20.2037 44.324C20.5957 44.108 21.1397 44 21.8357 44H24.3197V49.52H23.3837V44.444L23.8637 44.852H21.8357C21.3717 44.852 21.0117 44.908 20.7557 45.02C20.5077 45.132 20.3357 45.344 20.2397 45.656C20.1437 45.96 20.0957 46.408 20.0957 47C20.0957 47.592 20.1437 48.044 20.2397 48.356C20.3357 48.66 20.5077 48.868 20.7557 48.98C21.0117 49.092 21.3717 49.148 21.8357 49.148H25.6157V50H21.8357ZM25.6157 50V49.148C25.7197 49.148 25.7837 49.188 25.8077 49.268C25.8397 49.34 25.8557 49.44 25.8557 49.568C25.8557 49.696 25.8397 49.8 25.8077 49.88C25.7837 49.96 25.7197 50 25.6157 50ZM20.6717 42.92V41.84H21.6077V42.92H20.6717ZM22.3157 42.92V41.84H23.2517V42.92H22.3157ZM27.8492 50V49.148H29.1452V50H27.8492ZM29.1452 50V49.148C29.2492 49.148 29.3132 49.188 29.3372 49.268C29.3692 49.34 29.3852 49.44 29.3852 49.568C29.3852 49.696 29.3692 49.8 29.3372 49.88C29.3132 49.96 29.2492 50 29.1452 50ZM25.6172 50V49.148H27.3452L26.9132 49.496V44H27.8492V50H25.6172ZM25.6172 50C25.5132 50 25.4492 49.96 25.4252 49.88C25.3932 49.8 25.3772 49.696 25.3772 49.568C25.3772 49.44 25.3932 49.34 25.4252 49.268C25.4492 49.188 25.5132 49.148 25.6172 49.148V50ZM26.0972 52.16V51.08H27.0332V52.16H26.0972ZM27.7412 52.16V51.08H28.6772V52.16H27.7412ZM38.1685 50V49.148H39.4645V50H38.1685ZM35.4565 50C35.1845 50 34.9165 49.948 34.6525 49.844C34.3965 49.74 34.1485 49.576 33.9085 49.352L34.5205 48.716C34.7045 48.868 34.8685 48.98 35.0125 49.052C35.1565 49.116 35.3045 49.148 35.4565 49.148H37.5925L37.2325 49.532V46.664C37.2325 46.52 37.2165 46.316 37.1845 46.052C37.1605 45.788 37.1205 45.492 37.0645 45.164C37.0165 44.828 36.9565 44.492 36.8845 44.156L37.7965 44C37.8525 44.28 37.9085 44.592 37.9645 44.936C38.0205 45.28 38.0685 45.608 38.1085 45.92C38.1485 46.224 38.1685 46.472 38.1685 46.664V50H35.4565ZM29.1445 50V49.148H30.8965L30.6565 49.388V45.2H31.5805V50H29.1445ZM31.5805 50V49.148H32.9365C33.2085 49.148 33.4125 49.108 33.5485 49.028C33.6925 48.948 33.7925 48.788 33.8485 48.548C33.9045 48.308 33.9325 47.956 33.9325 47.492V44.6H34.8685V47.492C34.8685 48.116 34.8005 48.612 34.6645 48.98C34.5365 49.348 34.3325 49.612 34.0525 49.772C33.7725 49.924 33.4005 50 32.9365 50H31.5805ZM29.1445 50C29.0405 50 28.9765 49.96 28.9525 49.88C28.9205 49.8 28.9045 49.696 28.9045 49.568C28.9045 49.44 28.9205 49.34 28.9525 49.268C28.9765 49.188 29.0405 49.148 29.1445 49.148V50ZM39.4645 50V49.148C39.5685 49.148 39.6325 49.188 39.6565 49.268C39.6885 49.34 39.7045 49.44 39.7045 49.568C39.7045 49.696 39.6885 49.8 39.6565 49.88C39.6325 49.96 39.5685 50 39.4645 50ZM41.7008 50V49.148H42.9967V50H41.7008ZM42.9967 50V49.148C43.1008 49.148 43.1648 49.188 43.1888 49.268C43.2208 49.34 43.2368 49.44 43.2368 49.568C43.2368 49.696 43.2208 49.8 43.1888 49.88C43.1648 49.96 43.1008 50 42.9967 50ZM39.4688 50V49.148H41.1968L40.7648 49.496V44H41.7008V50H39.4688ZM39.4688 50C39.3647 50 39.3007 49.96 39.2767 49.88C39.2447 49.8 39.2287 49.696 39.2287 49.568C39.2287 49.44 39.2447 49.34 39.2767 49.268C39.3007 49.188 39.3647 49.148 39.4688 49.148V50ZM39.9488 52.16V51.08H40.8848V52.16H39.9488ZM41.5928 52.16V51.08H42.5288V52.16H41.5928ZM42.9961 50V49.148H44.7241L44.2921 49.496V44H45.2281V50H42.9961ZM42.9961 50C42.8921 50 42.8281 49.96 42.8041 49.88C42.7721 49.8 42.7561 49.696 42.7561 49.568C42.7561 49.44 42.7721 49.34 42.8041 49.268C42.8281 49.188 42.8921 49.148 42.9961 49.148V50ZM44.1961 42.92C44.0681 42.76 43.9681 42.604 43.8961 42.452C43.8321 42.3 43.8001 42.14 43.8001 41.972C43.8001 41.74 43.8561 41.532 43.9681 41.348C44.0881 41.164 44.2441 41.02 44.4361 40.916C44.6281 40.812 44.8361 40.76 45.0601 40.76C45.1881 40.76 45.3161 40.78 45.4441 40.82C45.5721 40.852 45.6841 40.9 45.7801 40.964L45.4681 41.504C45.4041 41.464 45.3401 41.44 45.2761 41.432C45.2201 41.416 45.1601 41.408 45.0961 41.408C44.9121 41.408 44.7641 41.46 44.6521 41.564C44.5481 41.668 44.4961 41.804 44.4961 41.972C44.4961 42.076 44.5161 42.176 44.5561 42.272C44.6041 42.368 44.6721 42.472 44.7601 42.584L44.1961 42.92ZM43.5721 42.92V42.284H45.9361V42.92H43.5721ZM48.2593 50V49.148H49.7953V50H48.2593ZM46.3033 52.652C46.1993 52.652 46.0913 52.644 45.9793 52.628C45.8593 52.62 45.7433 52.612 45.6313 52.604L45.7393 51.752C45.8513 51.76 45.9553 51.768 46.0513 51.776C46.1473 51.792 46.2313 51.8 46.3033 51.8C46.6793 51.8 46.9833 51.656 47.2153 51.368C47.4473 51.088 47.5633 50.696 47.5633 50.192V44H48.4993V50.192C48.4993 50.68 48.4033 51.108 48.2113 51.476C48.0273 51.852 47.7713 52.14 47.4433 52.34C47.1153 52.548 46.7353 52.652 46.3033 52.652ZM49.7953 50V49.148C49.8993 49.148 49.9633 49.188 49.9873 49.268C50.0193 49.34 50.0353 49.44 50.0353 49.568C50.0353 49.696 50.0193 49.8 49.9873 49.88C49.9633 49.96 49.8993 50 49.7953 50ZM51.245 50V41.396H52.181V50H51.245ZM49.793 50V49.148H51.245V50H49.793ZM49.793 50C49.689 50 49.625 49.96 49.601 49.88C49.569 49.8 49.553 49.696 49.553 49.568C49.553 49.44 49.569 49.34 49.601 49.268C49.625 49.188 49.689 49.148 49.793 49.148V50ZM54.2497 50V41.396H55.1737V50H54.2497Z" fill="#FB143C"/>
</svg>
