<svg width="75" height="64" viewBox="0 0 75 64" fill="none" xmlns="http://www.w3.org/2000/svg">
<path fill-rule="evenodd" clip-rule="evenodd" d="M36.0656 8.80358C36.4816 8.48611 36.9388 8.25 37.5 8.25C38.0612 8.25 38.5184 8.48611 38.9344 8.80358C39.3241 9.10089 39.7539 9.53075 40.2568 10.0337L40.2922 10.069C40.8067 10.5836 41.2553 10.7863 41.9479 10.7863C42.0345 10.7863 42.1442 10.7832 42.2682 10.7796C42.583 10.7707 42.99 10.7592 43.3456 10.7892C43.8672 10.8332 44.5205 10.9734 45.0187 11.4675C45.5207 11.9653 45.6643 12.6213 45.7097 13.1461C45.7407 13.505 45.7292 13.9151 45.7203 14.2321L45.7203 14.2324C45.7168 14.3559 45.7137 14.4653 45.7137 14.5521C45.7137 15.0029 45.7638 15.2547 45.8507 15.4535C45.9399 15.6578 46.0973 15.8742 46.431 16.2078L46.4664 16.2432C46.9693 16.7461 47.3991 17.1759 47.6964 17.5655C48.0139 17.9816 48.25 18.4388 48.25 19C48.25 19.5611 48.0139 20.0183 47.6964 20.4344C47.3991 20.8242 46.9691 21.2541 46.4661 21.7571L46.4309 21.7922C46.0973 22.1258 45.9399 22.3422 45.8507 22.5464C45.7638 22.7453 45.7137 22.9971 45.7137 23.4479C45.7137 23.5346 45.7168 23.644 45.7203 23.7676L45.7203 23.7679C45.7292 24.0849 45.7407 24.495 45.7097 24.8539C45.6643 25.3787 45.5207 26.0347 45.0186 26.5326C44.5204 27.0266 43.8671 27.1667 43.3456 27.2107C42.99 27.2408 42.583 27.2292 42.2682 27.2203C42.1442 27.2168 42.0345 27.2137 41.9479 27.2137C41.5067 27.2137 41.2587 27.2581 41.0635 27.3386C40.8685 27.4191 40.6599 27.5632 40.3458 27.8773C40.2787 27.9445 40.1902 28.0392 40.0882 28.1486C39.8583 28.3951 39.5593 28.7155 39.2801 28.9596C38.8563 29.33 38.2485 29.75 37.5 29.75C36.7516 29.75 36.1437 29.33 35.72 28.9596C35.4407 28.7155 35.1418 28.3951 34.9118 28.1486L34.9118 28.1486L34.9118 28.1486L34.9115 28.1483C34.8096 28.0391 34.7213 27.9444 34.6542 27.8774C34.3401 27.5632 34.1315 27.4191 33.9365 27.3386C33.7413 27.2581 33.4933 27.2137 33.0521 27.2137C32.9655 27.2137 32.8558 27.2168 32.7318 27.2203C32.417 27.2292 32.01 27.2408 31.6544 27.2107C31.1329 27.1667 30.4796 27.0266 29.9814 26.5326C29.4793 26.0347 29.3357 25.3787 29.2903 24.8539C29.2593 24.495 29.2708 24.0849 29.2797 23.7679C29.2832 23.6442 29.2863 23.5347 29.2863 23.4479C29.2863 22.9971 29.2362 22.7453 29.1493 22.5464C29.0601 22.3422 28.9027 22.1258 28.5691 21.7922L28.5339 21.7571C28.0309 21.2541 27.601 20.8242 27.3036 20.4344C26.9861 20.0183 26.75 19.5611 26.75 19C26.75 18.4388 26.9861 17.9816 27.3036 17.5655C27.6009 17.1759 28.0307 16.7461 28.5337 16.2432L28.569 16.2078C29.0837 15.6932 29.2863 15.2445 29.2863 14.5521C29.2863 14.4655 29.2832 14.3558 29.2797 14.2318L29.2797 14.2318C29.2707 13.917 29.2592 13.5099 29.2892 13.1544C29.3333 12.6328 29.4734 11.9796 29.9675 11.4813C30.4653 10.9793 31.1213 10.8357 31.6461 10.7903C32.005 10.7592 32.4151 10.7708 32.7321 10.7797C32.8558 10.7832 32.9653 10.7863 33.0521 10.7863C33.7445 10.7863 34.1932 10.5837 34.7078 10.069L34.7432 10.0337C35.2461 9.53075 35.6759 9.10089 36.0656 8.80358ZM33.7929 22.7071C33.4024 22.3166 33.4024 21.6834 33.7929 21.2929L39.7929 15.2929C40.1834 14.9024 40.8166 14.9024 41.2071 15.2929C41.5976 15.6834 41.5976 16.3166 41.2071 16.7071L35.2071 22.7071C34.8166 23.0976 34.1834 23.0976 33.7929 22.7071ZM34.5108 15H34.5C33.9477 15 33.5 15.4477 33.5 16C33.5 16.5523 33.9477 17 34.5 17H34.5108C35.063 17 35.5108 16.5523 35.5108 16C35.5108 15.4477 35.063 15 34.5108 15ZM40.4892 21C39.937 21 39.4892 21.4477 39.4892 22C39.4892 22.5523 39.937 23 40.4892 23H40.5C41.0523 23 41.5 22.5523 41.5 22C41.5 21.4477 41.0523 21 40.5 21H40.4892Z" fill="#FB143C"/>
<path d="M15.6807 50C14.4887 50 13.5967 49.792 13.0047 49.376C12.4127 48.96 12.1167 48.316 12.1167 47.444C12.1167 47.252 12.1287 47.044 12.1527 46.82C12.1847 46.596 12.2207 46.38 12.2607 46.172C12.3007 45.956 12.3367 45.772 12.3687 45.62C12.4007 45.46 12.4207 45.352 12.4287 45.296L13.3407 45.464C13.3167 45.592 13.2807 45.768 13.2327 45.992C13.1927 46.216 13.1527 46.456 13.1127 46.712C13.0727 46.968 13.0527 47.212 13.0527 47.444C13.0527 47.844 13.1367 48.172 13.3047 48.428C13.4727 48.676 13.7487 48.86 14.1327 48.98C14.5167 49.092 15.0327 49.148 15.6807 49.148H19.2087V44H20.1447V50H15.6807ZM14.8527 44.084V43.004H15.7887V44.084H14.8527ZM16.4967 44.084V43.004H17.4327V44.084H16.4967ZM23.1932 50V49.148H24.6572V50H23.1932ZM22.2692 50V41.396H23.1932V50H22.2692ZM24.6572 50V49.148C24.7612 49.148 24.8252 49.188 24.8492 49.268C24.8812 49.34 24.8972 49.44 24.8972 49.568C24.8972 49.696 24.8812 49.8 24.8492 49.88C24.8252 49.96 24.7612 50 24.6572 50ZM33.5963 50V49.148H34.8923V50H33.5963ZM24.6562 50V49.148H33.5243L32.6603 49.928V47.108C32.6603 46.604 32.5883 46.188 32.4443 45.86C32.3083 45.524 32.1003 45.272 31.8203 45.104C31.5483 44.936 31.2043 44.852 30.7883 44.852C30.4363 44.852 30.1083 44.912 29.8043 45.032C29.5083 45.144 29.2323 45.296 28.9763 45.488C28.7203 45.672 28.4803 45.88 28.2563 46.112C28.0403 46.336 27.8403 46.564 27.6562 46.796C27.4723 47.028 27.3043 47.24 27.1523 47.432L26.8523 46.58C27.0523 46.332 27.2523 46.084 27.4523 45.836C27.6603 45.588 27.8763 45.356 28.1003 45.14C28.3243 44.916 28.5683 44.72 28.8323 44.552C29.1043 44.384 29.4003 44.252 29.7203 44.156C30.0403 44.052 30.4003 44 30.8003 44C31.3683 44 31.8323 44.096 32.1923 44.288C32.5603 44.48 32.8443 44.736 33.0443 45.056C33.2523 45.368 33.3963 45.704 33.4763 46.064C33.5563 46.424 33.5963 46.772 33.5963 47.108V50H24.6562ZM26.3603 49.148V44H27.2963V49.148H26.3603ZM24.6562 50C24.5522 50 24.4882 49.96 24.4642 49.88C24.4322 49.8 24.4162 49.696 24.4162 49.568C24.4162 49.44 24.4322 49.34 24.4642 49.268C24.4882 49.188 24.5522 49.148 24.6562 49.148V50ZM34.8923 50V49.148C34.9963 49.148 35.0603 49.188 35.0843 49.268C35.1163 49.34 35.1323 49.44 35.1323 49.568C35.1323 49.696 35.1163 49.8 35.0843 49.88C35.0603 49.96 34.9963 50 34.8923 50ZM29.6363 42.932V41.852H30.5723V42.932H29.6363ZM37.1187 50V49.148H38.4147V50H37.1187ZM38.4147 50V49.148C38.5187 49.148 38.5827 49.188 38.6067 49.268C38.6387 49.34 38.6547 49.44 38.6547 49.568C38.6547 49.696 38.6387 49.8 38.6067 49.88C38.5827 49.96 38.5187 50 38.4147 50ZM34.8867 50V49.148H36.6147L36.1827 49.496V44H37.1187V50H34.8867ZM34.8867 50C34.7827 50 34.7187 49.96 34.6947 49.88C34.6627 49.8 34.6467 49.696 34.6467 49.568C34.6467 49.44 34.6627 49.34 34.6947 49.268C34.7187 49.188 34.7827 49.148 34.8867 49.148V50ZM35.3667 52.16V51.08H36.3027V52.16H35.3667ZM37.0107 52.16V51.08H37.9467V52.16H37.0107ZM44.7861 50V49.148H46.0821V50H44.7861ZM38.4141 50V49.148H44.4741L43.8501 49.688V44.444L44.3421 44.852H42.3021C41.8381 44.852 41.4781 44.908 41.2221 45.02C40.9741 45.132 40.8021 45.344 40.7061 45.656C40.6101 45.96 40.5621 46.408 40.5621 47C40.5621 47.592 40.6101 48.044 40.7061 48.356C40.8021 48.66 40.9741 48.868 41.2221 48.98C41.4781 49.092 41.8381 49.148 42.3021 49.148V49.76C41.6061 49.76 41.0621 49.676 40.6701 49.508C40.2861 49.332 40.0141 49.044 39.8541 48.644C39.7021 48.236 39.6261 47.688 39.6261 47C39.6261 46.312 39.7021 45.748 39.8541 45.308C40.0141 44.86 40.2861 44.532 40.6701 44.324C41.0621 44.108 41.6061 44 42.3021 44H44.7861V50H38.4141ZM38.4141 50C38.3101 50 38.2461 49.96 38.2221 49.88C38.1901 49.8 38.1741 49.696 38.1741 49.568C38.1741 49.44 38.1901 49.34 38.2221 49.268C38.2461 49.188 38.3101 49.148 38.4141 49.148V50ZM46.0821 50V49.148C46.1861 49.148 46.2501 49.188 46.2741 49.268C46.3061 49.34 46.3221 49.44 46.3221 49.568C46.3221 49.696 46.3061 49.8 46.2741 49.88C46.2501 49.96 46.1861 50 46.0821 50ZM42.0141 42.92V41.84H42.9501V42.92H42.0141ZM52.0181 50V49.148H53.3141V50H52.0181ZM46.0781 50V49.148H51.3701L51.0821 49.4V46.424C51.0821 45.904 50.9181 45.516 50.5901 45.26C50.2701 44.996 49.7781 44.864 49.1141 44.864C48.9061 44.864 48.6061 44.884 48.2141 44.924C47.8221 44.956 47.4101 45.004 46.9781 45.068L46.8701 44.3C47.1981 44.22 47.5581 44.152 47.9501 44.096C48.3421 44.032 48.7221 44 49.0901 44C49.6981 44 50.2181 44.096 50.6501 44.288C51.0901 44.472 51.4261 44.744 51.6581 45.104C51.8981 45.464 52.0181 45.904 52.0181 46.424V50H46.0781ZM46.0781 50C45.9741 50 45.9101 49.96 45.8861 49.88C45.8541 49.8 45.8381 49.696 45.8381 49.568C45.8381 49.44 45.8541 49.34 45.8861 49.268C45.9101 49.188 45.9741 49.148 46.0781 49.148V50ZM53.3141 50V49.148C53.4181 49.148 53.4821 49.188 53.5061 49.268C53.5381 49.34 53.5541 49.44 53.5541 49.568C53.5541 49.696 53.5381 49.8 53.5061 49.88C53.4821 49.96 53.4181 50 53.3141 50ZM48.6221 43.172V42.092H49.5581V43.172H48.6221ZM55.5406 50V49.148H56.8366V50H55.5406ZM56.8366 50V49.148C56.9406 49.148 57.0046 49.188 57.0286 49.268C57.0606 49.34 57.0766 49.44 57.0766 49.568C57.0766 49.696 57.0606 49.8 57.0286 49.88C57.0046 49.96 56.9406 50 56.8366 50ZM53.3086 50V49.148H55.0366L54.6046 49.496V44H55.5406V50H53.3086ZM53.3086 50C53.2046 50 53.1406 49.96 53.1166 49.88C53.0846 49.8 53.0686 49.696 53.0686 49.568C53.0686 49.44 53.0846 49.34 53.1166 49.268C53.1406 49.188 53.2046 49.148 53.3086 49.148V50ZM53.7886 42.92V41.84H54.7246V42.92H53.7886ZM55.4326 42.92V41.84H56.3686V42.92H55.4326ZM58.2879 50V41.396H59.2239V50H58.2879ZM56.8359 50V49.148H58.2879V50H56.8359ZM56.8359 50C56.7319 50 56.6679 49.96 56.6439 49.88C56.6119 49.8 56.5959 49.696 56.5959 49.568C56.5959 49.44 56.6119 49.34 56.6439 49.268C56.6679 49.188 56.7319 49.148 56.8359 49.148V50ZM61.2926 50V41.396H62.2166V50H61.2926Z" fill="#FB143C"/>
</svg>
