<svg width="75" height="64" viewBox="0 0 75 64" fill="none" xmlns="http://www.w3.org/2000/svg">
<path fill-rule="evenodd" clip-rule="evenodd" d="M37.5 8.25C31.5629 8.25 26.75 13.0629 26.75 19C26.75 24.9371 31.5629 29.75 37.5 29.75C43.4371 29.75 48.25 24.9371 48.25 19C48.25 13.0629 43.4371 8.25 37.5 8.25ZM37.4916 13.25C35.6958 13.25 34.2381 14.7041 34.2381 16.5C34.2381 18.2959 35.6958 19.75 37.4916 19.75C39.2875 19.75 40.7452 18.2959 40.7452 16.5C40.7452 14.7041 39.2875 13.25 37.4916 13.25ZM42.5409 23.4802C39.8735 20.6002 35.0747 20.7487 32.4638 23.4756L32.2763 23.6631C32.131 23.8084 32.0517 24.0069 32.0569 24.2123C32.062 24.4177 32.1512 24.612 32.3036 24.7498C33.6777 25.9923 35.5013 26.75 37.5001 26.75C39.4989 26.75 41.3225 25.9923 42.6966 24.7498C42.849 24.612 42.9382 24.4177 42.9433 24.2123C42.9485 24.0069 42.8692 23.8084 42.7239 23.6631L42.5409 23.4802Z" fill="#FB143C"/>
<path d="M22.9932 50C21.8012 50 20.9092 49.792 20.3172 49.376C19.7252 48.96 19.4292 48.316 19.4292 47.444C19.4292 47.252 19.4412 47.044 19.4652 46.82C19.4972 46.596 19.5332 46.38 19.5732 46.172C19.6132 45.956 19.6492 45.772 19.6812 45.62C19.7132 45.46 19.7332 45.352 19.7412 45.296L20.6532 45.464C20.6292 45.592 20.5932 45.768 20.5452 45.992C20.5052 46.216 20.4652 46.456 20.4252 46.712C20.3852 46.968 20.3652 47.212 20.3652 47.444C20.3652 47.844 20.4492 48.172 20.6172 48.428C20.7852 48.676 21.0612 48.86 21.4452 48.98C21.8292 49.092 22.3452 49.148 22.9932 49.148H26.5212V44H27.4572V50H22.9932ZM22.9812 52.16V51.08H23.9172V52.16H22.9812ZM30.5057 50V49.148H31.9697V50H30.5057ZM29.5817 50V41.396H30.5057V50H29.5817ZM31.9697 50V49.148C32.0737 49.148 32.1377 49.188 32.1617 49.268C32.1937 49.34 32.2097 49.44 32.2097 49.568C32.2097 49.696 32.1937 49.8 32.1617 49.88C32.1377 49.96 32.0737 50 31.9697 50ZM40.9928 50V49.148H42.2888V50H40.9928ZM38.2808 50C38.0088 50 37.7408 49.948 37.4768 49.844C37.2208 49.74 36.9728 49.576 36.7328 49.352L37.3448 48.716C37.5288 48.868 37.6928 48.98 37.8368 49.052C37.9808 49.116 38.1288 49.148 38.2808 49.148H40.4168L40.0568 49.532V46.664C40.0568 46.52 40.0408 46.316 40.0088 46.052C39.9848 45.788 39.9448 45.492 39.8888 45.164C39.8408 44.828 39.7808 44.492 39.7088 44.156L40.6208 44C40.6768 44.28 40.7328 44.592 40.7888 44.936C40.8448 45.28 40.8928 45.608 40.9328 45.92C40.9728 46.224 40.9928 46.472 40.9928 46.664V50H38.2808ZM31.9688 50V49.148H33.7208L33.4808 49.388V45.2H34.4048V50H31.9688ZM34.4048 50V49.148H35.7608C36.0328 49.148 36.2368 49.108 36.3728 49.028C36.5168 48.948 36.6168 48.788 36.6728 48.548C36.7288 48.308 36.7568 47.956 36.7568 47.492V44.6H37.6928V47.492C37.6928 48.116 37.6248 48.612 37.4888 48.98C37.3608 49.348 37.1568 49.612 36.8768 49.772C36.5968 49.924 36.2248 50 35.7608 50H34.4048ZM31.9688 50C31.8647 50 31.8007 49.96 31.7767 49.88C31.7447 49.8 31.7287 49.696 31.7287 49.568C31.7287 49.44 31.7447 49.34 31.7767 49.268C31.8007 49.188 31.8647 49.148 31.9688 49.148V50ZM42.2888 50V49.148C42.3928 49.148 42.4568 49.188 42.4808 49.268C42.5128 49.34 42.5288 49.44 42.5288 49.568C42.5288 49.696 42.5128 49.8 42.4808 49.88C42.4568 49.96 42.3928 50 42.2888 50ZM48.233 50V49.148H49.529V50H48.233ZM42.293 50V49.148H47.585L47.297 49.4V46.424C47.297 45.904 47.133 45.516 46.805 45.26C46.485 44.996 45.993 44.864 45.329 44.864C45.121 44.864 44.821 44.884 44.429 44.924C44.037 44.956 43.625 45.004 43.193 45.068L43.085 44.3C43.413 44.22 43.773 44.152 44.165 44.096C44.557 44.032 44.937 44 45.305 44C45.913 44 46.433 44.096 46.865 44.288C47.305 44.472 47.641 44.744 47.873 45.104C48.113 45.464 48.233 45.904 48.233 46.424V50H42.293ZM42.293 50C42.189 50 42.125 49.96 42.101 49.88C42.069 49.8 42.053 49.696 42.053 49.568C42.053 49.44 42.069 49.34 42.101 49.268C42.125 49.188 42.189 49.148 42.293 49.148V50ZM49.529 50V49.148C49.633 49.148 49.697 49.188 49.721 49.268C49.753 49.34 49.769 49.44 49.769 49.568C49.769 49.696 49.753 49.8 49.721 49.88C49.697 49.96 49.633 50 49.529 50ZM50.9754 50V41.396H51.9114V50H50.9754ZM49.5234 50V49.148H50.9754V50H49.5234ZM49.5234 50C49.4194 50 49.3554 49.96 49.3314 49.88C49.2994 49.8 49.2834 49.696 49.2834 49.568C49.2834 49.44 49.2994 49.34 49.3314 49.268C49.3554 49.188 49.4194 49.148 49.5234 49.148V50ZM53.9801 50V41.396H54.9041V50H53.9801Z" fill="#FB143C"/>
</svg>
