<svg width="18" height="18" viewBox="0 0 18 18" fill="none" xmlns="http://www.w3.org/2000/svg">
<g clip-path="url(#clip0_2294_3458)">
<path fill-rule="evenodd" clip-rule="evenodd" d="M0.75 1.5C0.75 1.08579 1.08579 0.75 1.5 0.75H2.2245C3.26181 0.75 4.18835 1.43728 4.44878 2.44928L4.78351 3.75H16.4997C16.914 3.75 17.2497 4.08579 17.2497 4.5C17.2497 4.91421 16.914 5.25 16.4997 5.25H16.421L16.0177 8.87947C15.9052 9.89227 15.7218 10.7709 15.1114 11.3648C14.501 11.9586 13.6176 12.1178 12.6021 12.2024L6.48996 12.7117C6.43116 12.8223 6.36269 12.9287 6.28485 13.0295L6.03419 13.3542C6.29635 13.5986 6.50003 13.905 6.62197 14.25H10.628C10.9369 13.3761 11.7703 12.75 12.75 12.75C13.9926 12.75 15 13.7574 15 15C15 16.2426 13.9926 17.25 12.75 17.25C11.7703 17.25 10.9369 16.6239 10.628 15.75H6.62197C6.31309 16.6239 5.47966 17.25 4.5 17.25C3.25736 17.25 2.25 16.2426 2.25 15C2.25 13.7574 3.25736 12.75 4.5 12.75C4.53479 12.75 4.56939 12.7508 4.6038 12.7524L5.09751 12.1128C5.22009 11.9541 5.26995 11.7593 5.24275 11.5702C5.23854 11.5434 5.2334 11.518 5.22729 11.4943L3.23438 3.75H3.23463L2.99611 2.82311C2.91286 2.49961 2.60421 2.25 2.2245 2.25H1.5C1.08579 2.25 0.75 1.91421 0.75 1.5ZM3.75 15C3.75 14.5858 4.08579 14.25 4.5 14.25C4.91421 14.25 5.25 14.5858 5.25 15C5.25 15.4142 4.91421 15.75 4.5 15.75C4.08579 15.75 3.75 15.4142 3.75 15ZM12 15C12 14.5858 12.3358 14.25 12.75 14.25C13.1642 14.25 13.5 14.5858 13.5 15C13.5 15.4142 13.1642 15.75 12.75 15.75C12.3358 15.75 12 15.4142 12 15Z" fill="white"/>
</g>
<defs>
<clipPath id="clip0_2294_3458">
<rect width="18" height="18" fill="white"/>
</clipPath>
</defs>
</svg>
