<svg width="42" height="42" viewBox="0 0 42 42" fill="none" xmlns="http://www.w3.org/2000/svg">
<circle cx="21" cy="21" r="20.5" fill="#F6F6F6" stroke="#DBDBDB"/>
<path d="M13.5 16.8333H16" stroke="#404040" stroke-width="1.5" stroke-linecap="round" stroke-linejoin="round"/>
<path d="M13.5 25.1666H18.5" stroke="#404040" stroke-width="1.5" stroke-linecap="round" stroke-linejoin="round"/>
<path d="M26 25.1666L28.5 25.1666" stroke="#404040" stroke-width="1.5" stroke-linecap="round" stroke-linejoin="round"/>
<path d="M23.5 16.8333L28.5 16.8333" stroke="#404040" stroke-width="1.5" stroke-linecap="round" stroke-linejoin="round"/>
<path d="M16 16.8333C16 16.0567 16 15.6685 16.1269 15.3622C16.296 14.9538 16.6205 14.6293 17.0289 14.4602C17.3351 14.3333 17.7234 14.3333 18.5 14.3333C19.2766 14.3333 19.6649 14.3333 19.9711 14.4602C20.3795 14.6293 20.704 14.9538 20.8731 15.3622C21 15.6685 21 16.0567 21 16.8333C21 17.6099 21 17.9982 20.8731 18.3045C20.704 18.7128 20.3795 19.0373 19.9711 19.2064C19.6649 19.3333 19.2766 19.3333 18.5 19.3333C17.7234 19.3333 17.3351 19.3333 17.0289 19.2064C16.6205 19.0373 16.296 18.7128 16.1269 18.3045C16 17.9982 16 17.6099 16 16.8333Z" stroke="#404040" stroke-width="1.5"/>
<path d="M21 25.1666C21 24.3901 21 24.0018 21.1269 23.6955C21.296 23.2871 21.6205 22.9627 22.0289 22.7935C22.3351 22.6666 22.7234 22.6666 23.5 22.6666C24.2766 22.6666 24.6649 22.6666 24.9711 22.7935C25.3795 22.9627 25.704 23.2871 25.8731 23.6955C26 24.0018 26 24.3901 26 25.1666C26 25.9432 26 26.3315 25.8731 26.6378C25.704 27.0461 25.3795 27.3706 24.9711 27.5398C24.6649 27.6666 24.2766 27.6666 23.5 27.6666C22.7234 27.6666 22.3351 27.6666 22.0289 27.5398C21.6205 27.3706 21.296 27.0461 21.1269 26.6378C21 26.3315 21 25.9432 21 25.1666Z" stroke="#404040" stroke-width="1.5"/>
</svg>
