<svg width="36" height="36" viewBox="0 0 36 36" fill="none" xmlns="http://www.w3.org/2000/svg">
<circle cx="18" cy="18" r="18" fill="#FFF1F1"/>
<path d="M11.3334 23.5382V14.7119C11.3334 12.3335 11.3334 11.1444 12.0656 10.4055C12.7978 9.66667 13.9764 9.66667 16.3334 9.66667H19.6667C22.0237 9.66667 23.2022 9.66667 23.9345 10.4055C24.6667 11.1444 24.6667 12.3335 24.6667 14.7119V23.5382C24.6667 24.7979 24.6667 25.4278 24.2817 25.6757C23.6526 26.0809 22.6801 25.2312 22.191 24.9227C21.7868 24.6679 21.5848 24.5404 21.3605 24.5331C21.1181 24.5251 20.9125 24.6473 20.4758 24.9227L18.8834 25.927C18.4538 26.1979 18.239 26.3333 18 26.3333C17.761 26.3333 17.5463 26.1979 17.1167 25.927L15.5243 24.9227C15.1202 24.6679 14.9181 24.5404 14.6938 24.5331C14.4515 24.5251 14.2458 24.6473 13.8091 24.9227C13.32 25.2312 12.3474 26.0809 11.7183 25.6757C11.3334 25.4278 11.3334 24.7979 11.3334 23.5382Z" stroke="#FB143C" stroke-width="1.5" stroke-linecap="round" stroke-linejoin="round"/>
<path d="M17.1667 17.1667H14.6667" stroke="#FB143C" stroke-width="1.5" stroke-linecap="round" stroke-linejoin="round"/>
<path d="M19.6667 13.8333H14.6667" stroke="#FB143C" stroke-width="1.5" stroke-linecap="round" stroke-linejoin="round"/>
</svg>
