<svg width="36" height="36" viewBox="0 0 36 36" fill="none" xmlns="http://www.w3.org/2000/svg">
<circle cx="18" cy="18" r="18" fill="#FFF0F3"/>
<path d="M8.91199 10.7351L8.19806 10.5053H8.19806L8.91199 10.7351ZM8.22827 12.8593L8.94219 13.0891L8.22827 12.8593ZM27.088 10.7351L26.3741 10.9649V10.9649L27.088 10.7351ZM27.7717 12.8593L28.4857 12.6295V12.6295L27.7717 12.8593ZM15.6564 15.2732C15.3653 14.9784 14.8905 14.9754 14.5957 15.2664C14.301 15.5574 14.2979 16.0323 14.5889 16.327L15.6564 15.2732ZM21.4112 15.2726C21.1202 14.9778 20.6454 14.9746 20.3505 15.2656C20.0557 15.5565 20.0526 16.0314 20.3435 16.3262L21.4112 15.2726ZM8.37533 15.07L8.98333 14.6309L8.98333 14.6309L8.37533 15.07ZM16.8727 14.1882C16.9766 13.7872 16.7358 13.3779 16.3349 13.274C15.9339 13.1701 15.5246 13.4109 15.4207 13.8118L16.8727 14.1882ZM22.6267 14.1882C22.7306 13.7872 22.4899 13.3779 22.0889 13.274C21.6879 13.1701 21.2786 13.4109 21.1747 13.8118L22.6267 14.1882ZM27.6247 15.07L27.0167 14.6309V14.6309L27.6247 15.07ZM27.9735 14.2067L27.2325 14.091V14.091L27.9735 14.2067ZM8.0265 14.2067L7.28547 14.3223L8.0265 14.2067ZM10.0551 8.37752L9.60645 7.77649L9.60645 7.77649L10.0551 8.37752ZM8.19806 10.5053L7.51434 12.6295L8.94219 13.0891L9.62592 10.9649L8.19806 10.5053ZM26.3741 10.9649L27.0578 13.0891L28.4857 12.6295L27.8019 10.5053L26.3741 10.9649ZM12.5762 8.75L23.4238 8.75V7.25L12.5762 7.25V8.75ZM17.9993 16.25C17.0804 16.25 16.2518 15.8762 15.6564 15.2732L14.5889 16.327C15.4557 17.205 16.6646 17.75 17.9993 17.75V16.25ZM23.7547 16.25C22.8355 16.25 22.0066 15.876 21.4112 15.2726L20.3435 16.3262C21.2104 17.2046 22.4196 17.75 23.7547 17.75V16.25ZM12.2453 16.25C11.0111 16.25 9.67028 15.582 8.98333 14.6309L7.76733 15.5092C8.75148 16.8718 10.556 17.75 12.2453 17.75L12.2453 16.25ZM15.4207 13.8118C15.058 15.2112 13.7755 16.25 12.2453 16.25L12.2453 17.75C14.4691 17.75 16.341 16.2393 16.8727 14.1882L15.4207 13.8118ZM21.1747 13.8118C20.812 15.2112 19.5296 16.25 17.9993 16.25V17.75C20.2231 17.75 22.0951 16.2393 22.6267 14.1882L21.1747 13.8118ZM27.0167 14.6309C26.3297 15.582 24.9889 16.25 23.7547 16.25V17.75C25.444 17.75 27.2485 16.8718 28.2327 15.5092L27.0167 14.6309ZM27.0578 13.0891C27.2449 13.6704 27.2777 13.8014 27.2325 14.091L28.7145 14.3223C28.8208 13.6415 28.6686 13.1977 28.4857 12.6295L27.0578 13.0891ZM28.2327 15.5092C28.3174 15.3919 28.4327 15.2365 28.5243 15.0305C28.617 14.8219 28.6717 14.5967 28.7145 14.3223L27.2325 14.091C27.1996 14.3018 27.1709 14.3823 27.1536 14.4211C27.1353 14.4624 27.114 14.4961 27.0167 14.6309L28.2327 15.5092ZM27.8019 10.5053C27.5947 9.86137 27.4214 9.31957 27.2309 8.89553C27.0333 8.45546 26.7871 8.07024 26.3936 7.77649L25.4963 8.97854C25.6085 9.06231 25.7215 9.19586 25.8627 9.51018C26.0111 9.84054 26.1565 10.2888 26.3741 10.9649L27.8019 10.5053ZM23.4238 8.75C24.1135 8.75 24.5655 8.75121 24.9105 8.792C25.2346 8.83033 25.3863 8.89642 25.4963 8.97854L26.3936 7.77649C25.9978 7.4811 25.5607 7.35843 25.0866 7.30238C24.6333 7.24879 24.0777 7.25 23.4238 7.25V8.75ZM7.51434 12.6295C7.33145 13.1977 7.17923 13.6415 7.28547 14.3223L8.76753 14.091C8.72233 13.8014 8.7551 13.6704 8.94219 13.0891L7.51434 12.6295ZM8.98333 14.6309C8.88596 14.4961 8.86474 14.4624 8.84636 14.4211C8.82911 14.3823 8.80043 14.3018 8.76753 14.091L7.28547 14.3223C7.3283 14.5967 7.383 14.8219 7.47571 15.0305C7.5673 15.2365 7.68263 15.3919 7.76733 15.5092L8.98333 14.6309ZM9.62592 10.9649C9.84354 10.2888 9.98895 9.84054 10.1373 9.51018C10.2785 9.19586 10.3915 9.06231 10.5037 8.97854L9.60645 7.77649C9.21291 8.07024 8.96674 8.45545 8.76906 8.89553C8.57858 9.31957 8.40532 9.86137 8.19806 10.5053L9.62592 10.9649ZM12.5762 7.25C11.9223 7.25 11.3667 7.24879 10.9134 7.30238C10.4393 7.35843 10.0022 7.4811 9.60645 7.77649L10.5037 8.97854C10.6137 8.89642 10.7654 8.83033 11.0895 8.792C11.4345 8.75121 11.8865 8.75 12.5762 8.75V7.25Z" fill="#FB143C"/>
<path d="M9 16L9 21C9 23.8284 9 25.2426 9.87868 26.1213C10.7574 27 12.1716 27 15 27H18" stroke="#FB143C" stroke-width="1.5" stroke-linecap="round"/>
<path d="M13 23H17" stroke="#FB143C" stroke-width="1.5" stroke-linecap="round"/>
<path d="M24.5 19.5C26.433 19.5 28 21.0376 28 22.9343C28 25.0798 25.8843 26.1346 24.875 27.7429C24.6599 28.0857 24.3556 28.0857 24.125 27.7429C23.0842 26.1957 21 25.0351 21 22.9343C21 21.0376 22.567 19.5 24.5 19.5Z" stroke="#FB143C" stroke-width="1.5" stroke-linejoin="round"/>
<path d="M24.5 23L24.509 23" stroke="#FB143C" stroke-width="2" stroke-linecap="round" stroke-linejoin="round"/>
</svg>
