<svg width="36" height="36" viewBox="0 0 36 36" fill="none" xmlns="http://www.w3.org/2000/svg">
<circle cx="18" cy="18" r="18" fill="#F2F2F2"/>
<path d="M21 23.625C20.9264 25.4769 19.3831 27.0494 17.3156 26.9988C16.8346 26.987 16.2401 26.8194 15.0511 26.484C12.1896 25.6768 9.70555 24.3203 9.10956 21.2815C9 20.723 9 20.0944 9 18.8373L9 17.1627C9 15.9056 9 15.277 9.10956 14.7185C9.70555 11.6797 12.1896 10.3232 15.0511 9.51603C16.2401 9.18064 16.8346 9.01295 17.3156 9.00119C19.3831 8.95061 20.9264 10.5231 21 12.375" stroke="#181818" stroke-width="1.5" stroke-linecap="round"/>
<path d="M27 18H16M27 18C27 17.2998 25.0057 15.9915 24.5 15.5M27 18C27 18.7002 25.0057 20.0085 24.5 20.5" stroke="#181818" stroke-width="1.5" stroke-linecap="round" stroke-linejoin="round"/>
</svg>
