<svg width="21" height="20" viewBox="0 0 21 20" fill="none" xmlns="http://www.w3.org/2000/svg">
<path d="M13 14.6875C12.9387 16.2308 11.6526 17.5412 9.9297 17.499C9.52887 17.4892 9.03345 17.3495 8.0426 17.07C5.65801 16.3974 3.58796 15.267 3.0913 12.7346C3 12.2691 3 11.7453 3 10.6977L3 9.30228C3 8.25467 3 7.73087 3.0913 7.26537C3.58796 4.73303 5.65801 3.60261 8.0426 2.93C9.03345 2.65051 9.52887 2.51077 9.9297 2.50097C11.6526 2.45882 12.9387 3.7692 13 5.31249" stroke="white" stroke-width="2" stroke-linecap="round"/>
<path d="M8.83337 9.99996H18M8.83337 9.99996C8.83337 9.41644 10.4953 8.32623 10.9167 7.91663M8.83337 9.99996C8.83337 10.5835 10.4953 11.6737 10.9167 12.0833" stroke="white" stroke-width="2" stroke-linecap="round" stroke-linejoin="round"/>
</svg>
