<svg width="26" height="26" viewBox="0 0 26 26" fill="none" xmlns="http://www.w3.org/2000/svg">
<circle cx="13" cy="13" r="13" fill="#2C3454" fill-opacity="0.65"/>
<path d="M9.76878 18.712C10.2121 18.712 10.4337 18.712 10.6356 18.787C10.6636 18.7974 10.6913 18.8088 10.7185 18.8213C10.9142 18.9111 11.071 19.0678 11.3844 19.3813C12.1058 20.1027 12.4665 20.4634 12.9104 20.4966C12.97 20.5011 13.03 20.5011 13.0896 20.4966C13.5335 20.4634 13.8942 20.1027 14.6156 19.3813C14.9291 19.0678 15.0858 18.9111 15.2815 18.8213C15.3087 18.8088 15.3364 18.7974 15.3644 18.787C15.5663 18.712 15.7879 18.712 16.2312 18.712H16.313C17.4439 18.712 18.0094 18.712 18.3607 18.3607C18.712 18.0094 18.712 17.4439 18.712 16.313V16.2312C18.712 15.7879 18.712 15.5663 18.787 15.3644C18.7974 15.3364 18.8088 15.3087 18.8213 15.2815C18.9111 15.0858 19.0678 14.9291 19.3813 14.6156C20.1027 13.8942 20.4634 13.5335 20.4966 13.0896C20.5011 13.03 20.5011 12.97 20.4966 12.9104C20.4634 12.4665 20.1027 12.1058 19.3813 11.3844C19.0678 11.071 18.9111 10.9142 18.8213 10.7185C18.8088 10.6913 18.7974 10.6636 18.787 10.6356C18.712 10.4337 18.712 10.2121 18.712 9.76878V9.68702C18.712 8.55609 18.712 7.99063 18.3607 7.63929C18.0094 7.28796 17.4439 7.28796 16.313 7.28796H16.2312C15.7879 7.28796 15.5663 7.28796 15.3644 7.21304C15.3364 7.20263 15.3087 7.19118 15.2815 7.17871C15.0858 7.08891 14.9291 6.93219 14.6156 6.61875C13.8942 5.89733 13.5335 5.53662 13.0896 5.50336C13.03 5.49888 12.97 5.49888 12.9104 5.50336C12.4665 5.53662 12.1058 5.89733 11.3844 6.61875C11.071 6.93219 10.9142 7.08891 10.7185 7.17871C10.6913 7.19118 10.6636 7.20263 10.6356 7.21304C10.4337 7.28796 10.2121 7.28796 9.76878 7.28796H9.68702C8.55609 7.28796 7.99063 7.28796 7.63929 7.63929C7.28796 7.99063 7.28796 8.55609 7.28796 9.68702V9.76878C7.28796 10.2121 7.28796 10.4337 7.21304 10.6356C7.20263 10.6636 7.19118 10.6913 7.17871 10.7185C7.08891 10.9142 6.93219 11.071 6.61875 11.3844C5.89733 12.1058 5.53662 12.4665 5.50336 12.9104C5.49888 12.97 5.49888 13.03 5.50336 13.0896C5.53662 13.5335 5.89733 13.8942 6.61875 14.6156C6.93219 14.9291 7.08891 15.0858 7.17871 15.2815C7.19118 15.3087 7.20263 15.3364 7.21304 15.3644C7.28796 15.5663 7.28796 15.7879 7.28796 16.2312V16.313C7.28796 17.4439 7.28796 18.0094 7.63929 18.3607C7.99063 18.712 8.55609 18.712 9.68702 18.712H9.76878Z" stroke="white"/>
<path d="M15.25 10.75L10.75 15.25" stroke="white" stroke-linecap="round" stroke-linejoin="round"/>
<path d="M15.25 15.25H15.2419M10.7581 10.75H10.75" stroke="white" stroke-width="1.5" stroke-linecap="round" stroke-linejoin="round"/>
</svg>
