<svg width="36" height="36" viewBox="0 0 36 36" fill="none" xmlns="http://www.w3.org/2000/svg">
<circle cx="18" cy="18" r="18" fill="#FFF0F3"/>
<path d="M18.5294 8C22.5225 8 24.519 8 25.7595 9.17157C27 10.3431 27 12.2288 27 16V20C27 23.7712 27 25.6569 25.7595 26.8284C24.519 28 22.5225 28 18.5294 28H17.4706C13.4775 28 11.481 28 10.2405 26.8284C9 25.6569 9 23.7712 9 20L9 16C9 12.2288 9 10.3431 10.2405 9.17157C11.481 8 13.4775 8 17.4706 8L18.5294 8Z" stroke="#FB143C" stroke-width="1.5" stroke-linecap="round"/>
<path d="M14 13H22" stroke="#FB143C" stroke-width="1.5" stroke-linecap="round"/>
<path d="M14 18H22" stroke="#FB143C" stroke-width="1.5" stroke-linecap="round"/>
<path d="M14 23H18" stroke="#FB143C" stroke-width="1.5" stroke-linecap="round"/>
</svg>
