<svg width="57" height="26" viewBox="0 0 57 26" fill="none" xmlns="http://www.w3.org/2000/svg">
<rect width="57" height="26" rx="13" fill="#2C3454" fill-opacity="0.65"/>
<path d="M13.5766 17V16.004H14.8726V17H13.5766ZM8.87258 17V16.004H13.3126L12.4606 16.76V14.3C12.4606 13.716 12.3926 13.256 12.2566 12.92C12.1286 12.584 11.9166 12.348 11.6206 12.212C11.3246 12.068 10.9246 11.996 10.4206 11.996H9.44858V10.988H10.4206C11.0846 10.988 11.6526 11.096 12.1246 11.312C12.5966 11.52 12.9566 11.868 13.2046 12.356C13.4526 12.836 13.5766 13.484 13.5766 14.3V17H8.87258ZM14.8726 17V16.004C14.9686 16.004 15.0326 16.048 15.0646 16.136C15.0966 16.224 15.1126 16.344 15.1126 16.496C15.1126 16.648 15.0966 16.772 15.0646 16.868C15.0326 16.956 14.9686 17 14.8726 17ZM14.873 17V16.004H16.913L16.337 16.46V10.988H17.453V17H14.873ZM14.873 17C14.769 17 14.705 16.956 14.681 16.868C14.649 16.772 14.633 16.648 14.633 16.496C14.633 16.344 14.649 16.224 14.681 16.136C14.705 16.048 14.769 16.004 14.873 16.004V17ZM15.353 19.256V18.092H16.481V19.256H15.353ZM16.997 19.256V18.092H18.125V19.256H16.997ZM23.5844 17V16.004H24.8804V17H23.5844ZM18.8804 17V16.004H23.3204L22.4684 16.76V14.3C22.4684 13.716 22.4004 13.256 22.2644 12.92C22.1364 12.584 21.9244 12.348 21.6284 12.212C21.3324 12.068 20.9324 11.996 20.4284 11.996H19.4564V10.988H20.4284C21.0924 10.988 21.6604 11.096 22.1324 11.312C22.6044 11.52 22.9644 11.868 23.2124 12.356C23.4604 12.836 23.5844 13.484 23.5844 14.3V17H18.8804ZM24.8804 17V16.004C24.9764 16.004 25.0404 16.048 25.0724 16.136C25.1044 16.224 25.1204 16.344 25.1204 16.496C25.1204 16.648 25.1044 16.772 25.0724 16.868C25.0404 16.956 24.9764 17 24.8804 17ZM24.8809 17V16.004H30.1369L29.7769 16.304V13.532C29.7769 13.028 29.6169 12.648 29.2969 12.392C28.9849 12.136 28.4969 12.008 27.8329 12.008C27.6329 12.008 27.3449 12.024 26.9689 12.056C26.6009 12.088 26.2089 12.136 25.7929 12.2L25.6729 11.288C26.0009 11.208 26.3569 11.14 26.7409 11.084C27.1249 11.02 27.4969 10.988 27.8569 10.988C28.4809 10.988 29.0169 11.088 29.4649 11.288C29.9209 11.488 30.2729 11.78 30.5209 12.164C30.7689 12.54 30.8929 12.996 30.8929 13.532V17H24.8809ZM24.8809 17C24.7769 17 24.7129 16.956 24.6889 16.868C24.6569 16.772 24.6409 16.648 24.6409 16.496C24.6409 16.344 24.6569 16.224 24.6889 16.136C24.7129 16.048 24.7769 16.004 24.8809 16.004V17ZM27.3649 19.268V18.104H28.4929V19.268H27.3649Z" fill="white"/>
<path d="M42.25 5.5L42.654 7.29368C42.9968 8.81511 44.1849 10.0032 45.7063 10.346L47.5 10.75L45.7063 11.154C44.1849 11.4968 42.9968 12.6849 42.654 14.2063L42.25 16L41.846 14.2063C41.5032 12.6849 40.3151 11.4968 38.7937 11.154L37 10.75L38.7937 10.346C40.3151 10.0032 41.5032 8.81511 41.846 7.29368L42.25 5.5Z" stroke="white" stroke-linejoin="round"/>
<path d="M36.25 13L36.5386 14.2812C36.7834 15.3679 37.6321 16.2166 38.7188 16.4614L40 16.75L38.7188 17.0386C37.6321 17.2834 36.7834 18.1321 36.5386 19.2188L36.25 20.5L35.9614 19.2188C35.7166 18.1321 34.8679 17.2834 33.7812 17.0386L32.5 16.75L33.7812 16.4614C34.8679 16.2166 35.7166 15.3679 35.9614 14.2812L36.25 13Z" stroke="white" stroke-linejoin="round"/>
</svg>
