<svg width="26" height="26" viewBox="0 0 26 26" fill="none" xmlns="http://www.w3.org/2000/svg">
<circle cx="13" cy="13" r="13" fill="#2C3454" fill-opacity="0.65"/>
<path d="M5.90899 16.5757C5.67467 16.8101 5.67467 17.1899 5.90899 17.4243C6.1433 17.6586 6.5232 17.6586 6.75752 17.4243L5.90899 16.5757ZM9.4894 13.8439L9.91366 14.2681L9.4894 13.8439ZM11.2651 13.7455L10.8903 14.214H10.8903L11.2651 13.7455ZM12.6781 14.8759L12.3033 15.3444L12.3033 15.3444L12.6781 14.8759ZM14.5076 14.7205L14.0591 14.3219L14.5076 14.7205ZM19.4484 10.0653C19.6685 9.81762 19.6462 9.43837 19.3985 9.21822C19.1509 8.99807 18.7716 9.02038 18.5515 9.26805L19.4484 10.0653ZM13.6452 15.415L13.696 16.0128H13.696L13.6452 15.415ZM10.3459 13.2277L10.379 13.8268L10.379 13.8268L10.3459 13.2277ZM16.9999 8.4C16.6685 8.4 16.3999 8.66863 16.3999 9C16.3999 9.33137 16.6685 9.6 16.9999 9.6V8.4ZM19.0666 11.6667C19.0666 11.998 19.3352 12.2667 19.6666 12.2667C19.998 12.2667 20.2666 11.998 20.2666 11.6667H19.0666ZM19.4713 9.19526L19.8956 8.771V8.771L19.4713 9.19526ZM6.75752 17.4243L9.91366 14.2681L9.06513 13.4196L5.90899 16.5757L6.75752 17.4243ZM10.8903 14.214L12.3033 15.3444L13.0529 14.4074L11.64 13.277L10.8903 14.214ZM14.956 15.1192L19.4484 10.0653L18.5515 9.26805L14.0591 14.3219L14.956 15.1192ZM12.3033 15.3444C12.5244 15.5213 12.7355 15.6917 12.9273 15.8077C13.1339 15.9326 13.3877 16.039 13.696 16.0128L13.5945 14.8171C13.6376 14.8135 13.6419 14.8375 13.5482 14.7808C13.4397 14.7152 13.2998 14.6049 13.0529 14.4074L12.3033 15.3444ZM14.0591 14.3219C13.8491 14.5582 13.7298 14.6906 13.6339 14.7736C13.5511 14.8452 13.5513 14.8208 13.5945 14.8171L13.696 16.0128C14.0043 15.9866 14.2365 15.839 14.4191 15.681C14.5886 15.5344 14.7679 15.3308 14.956 15.1192L14.0591 14.3219ZM9.91366 14.2681C10.1256 14.0562 10.245 13.9385 10.3396 13.8653C10.4208 13.8026 10.4197 13.8245 10.379 13.8268L10.3127 12.6286C10.0177 12.6449 9.78904 12.7742 9.6059 12.9158C9.43626 13.0468 9.25456 13.2302 9.06513 13.4196L9.91366 14.2681ZM11.64 13.277C11.4308 13.1096 11.2299 12.9475 11.0469 12.8359C10.8492 12.7155 10.6077 12.6123 10.3127 12.6286L10.379 13.8268C10.3384 13.829 10.3349 13.8074 10.4225 13.8607C10.5246 13.923 10.6562 14.0268 10.8903 14.214L11.64 13.277ZM16.9999 9.6H18.3333V8.4H16.9999V9.6ZM19.0666 10.3333V11.6667H20.2666V10.3333H19.0666ZM18.3333 9.6C18.6645 9.6 18.8525 9.60127 18.9848 9.61906C19.0998 9.63452 19.0795 9.65196 19.0471 9.61953L19.8956 8.771C19.6679 8.54331 19.3928 8.46311 19.1447 8.42976C18.9139 8.39873 18.6306 8.4 18.3333 8.4V9.6ZM20.2666 10.3333C20.2666 10.036 20.2679 9.75269 20.2368 9.52187C20.2035 9.2738 20.1233 8.99869 19.8956 8.771L19.0471 9.61953C19.0146 9.5871 19.0321 9.56676 19.0475 9.68177C19.0653 9.81404 19.0666 10.0021 19.0666 10.3333H20.2666Z" fill="white"/>
</svg>
