<svg width="211" height="231" viewBox="0 0 211 231" fill="none" xmlns="http://www.w3.org/2000/svg">
<path d="M3.40065 130.408C1.44965 127.014 0.420816 123.168 0.415383 119.248C0.366462 110.441 5.3193 102.09 13.2779 97.4946L174.339 4.50594C182.32 -0.10181 192.007 -0.202397 199.609 4.2432C203.09 6.2504 205.961 9.15576 207.923 12.6556C209.885 16.1555 210.866 20.1213 210.762 24.1385L207.379 208.565C207.227 212.456 206.086 216.249 204.065 219.59C202.043 222.93 199.206 225.708 195.82 227.663C192.434 229.618 188.609 230.686 184.705 230.767C180.802 230.848 176.946 229.938 173.501 228.125L12.0558 138.832C8.4551 136.861 5.46361 133.95 3.40065 130.408Z" fill="#F6F6F6"/>
</svg>
