<svg width="75" height="64" viewBox="0 0 75 64" fill="none" xmlns="http://www.w3.org/2000/svg">
<path d="M38.5 29C37.6818 29 36.9002 28.6588 35.3369 27.9764C33.5123 27.18 32.1155 26.5703 31.1465 26H27.5M38.5 29C39.3182 29 40.0998 28.6588 41.6631 27.9764C45.5544 26.2779 47.5 25.4286 47.5 24V13.5M38.5 29V18M29.5 13.5V16.5" stroke="#808080" stroke-width="1.5" stroke-linecap="round" stroke-linejoin="round"/>
<path d="M34.8259 16.6914L31.9047 15.2778C30.3016 14.5021 29.5 14.1142 29.5 13.5C29.5 12.8858 30.3016 12.4979 31.9047 11.7222L34.8259 10.3086C36.6288 9.43621 37.5303 9 38.5 9C39.4697 9 40.3712 9.4362 42.1741 10.3086L45.0953 11.7222C46.6984 12.4979 47.5 12.8858 47.5 13.5C47.5 14.1142 46.6984 14.5021 45.0953 15.2778L42.1741 16.6914C40.3712 17.5638 39.4697 18 38.5 18C37.5303 18 36.6288 17.5638 34.8259 16.6914Z" stroke="#808080" stroke-width="1.5" stroke-linecap="round" stroke-linejoin="round"/>
<path d="M43.6366 11.0156L33.3672 15.9849" stroke="#808080" stroke-width="1.5" stroke-linecap="round" stroke-linejoin="round"/>
<path d="M27.5 20H30.5" stroke="#808080" stroke-width="1.5" stroke-linecap="round" stroke-linejoin="round"/>
<path d="M27.5 23H30.5" stroke="#808080" stroke-width="1.5" stroke-linecap="round" stroke-linejoin="round"/>
<path d="M24.5456 52.976C24.0816 52.976 23.6496 52.908 23.2496 52.772C22.8496 52.644 22.4976 52.46 22.1936 52.22C21.8976 51.988 21.6656 51.708 21.4976 51.38C21.3296 51.052 21.2456 50.692 21.2456 50.3C21.2456 50.14 21.2576 49.928 21.2816 49.664C21.3136 49.4 21.3496 49.104 21.3896 48.776C21.4376 48.44 21.4896 48.1 21.5456 47.756L22.4696 47.888C22.3816 48.424 22.3096 48.912 22.2536 49.352C22.2056 49.792 22.1816 50.104 22.1816 50.288C22.1816 50.648 22.2816 50.964 22.4816 51.236C22.6816 51.516 22.9576 51.732 23.3096 51.884C23.6696 52.044 24.0816 52.124 24.5456 52.124H27.9416C28.5496 52.124 29.0096 51.956 29.3216 51.62C29.6416 51.284 29.8016 50.792 29.8016 50.144V49.748H30.7256V50.156C30.7256 50.708 30.6176 51.196 30.4016 51.62C30.1856 52.044 29.8696 52.376 29.4536 52.616C29.0456 52.856 28.5416 52.976 27.9416 52.976H24.5456ZM29.1056 50C28.8336 50 28.5576 49.972 28.2776 49.916C28.0056 49.86 27.7336 49.744 27.4616 49.568L27.9896 48.86C28.1016 48.932 28.2096 48.992 28.3136 49.04C28.4176 49.08 28.5336 49.108 28.6616 49.124C28.7896 49.14 28.9376 49.148 29.1056 49.148H31.3736V50H29.1056ZM31.3736 50V49.148C31.4776 49.148 31.5416 49.188 31.5656 49.268C31.5976 49.34 31.6136 49.44 31.6136 49.568C31.6136 49.696 31.5976 49.8 31.5656 49.88C31.5416 49.96 31.4776 50 31.3736 50ZM24.7016 55.16V54.08H25.6376V55.16H24.7016ZM26.3456 55.16V54.08H27.2816V55.16H26.3456ZM31.3711 50V49.148H33.0991L32.6671 49.496V44H33.6031V50H31.3711ZM31.3711 50C31.2671 50 31.2031 49.96 31.1791 49.88C31.1471 49.8 31.1311 49.696 31.1311 49.568C31.1311 49.44 31.1471 49.34 31.1791 49.268C31.2031 49.188 31.2671 49.148 31.3711 49.148V50ZM31.8511 42.92V41.84H32.7871V42.92H31.8511ZM33.4951 42.92V41.84H34.4311V42.92H33.4951ZM36.6463 50V49.148H38.1103V50H36.6463ZM35.7223 50V41.396H36.6463V50H35.7223ZM38.1103 50V49.148C38.2143 49.148 38.2783 49.188 38.3023 49.268C38.3343 49.34 38.3503 49.44 38.3503 49.568C38.3503 49.696 38.3343 49.8 38.3023 49.88C38.2783 49.96 38.2143 50 38.1103 50ZM40.3414 50V49.148H41.6374V50H40.3414ZM38.1094 50V49.148H39.8374L39.4054 49.496V44H40.3414V50H38.1094ZM38.1094 50C38.0054 50 37.9414 49.96 37.9174 49.88C37.8854 49.8 37.8694 49.696 37.8694 49.568C37.8694 49.44 37.8854 49.34 37.9174 49.268C37.9414 49.188 38.0054 49.148 38.1094 49.148V50ZM41.6374 50V49.148C41.7414 49.148 41.8054 49.188 41.8294 49.268C41.8614 49.34 41.8774 49.44 41.8774 49.568C41.8774 49.696 41.8614 49.8 41.8294 49.88C41.8054 49.96 41.7414 50 41.6374 50ZM39.4054 52.16V51.08H40.3414V52.16H39.4054ZM44.0247 50V49.148H45.3207V50H44.0247ZM43.0887 50V41.396H44.0247V50H43.0887ZM41.6367 50V49.148H43.0887V50H41.6367ZM41.6367 50C41.5327 50 41.4687 49.96 41.4447 49.88C41.4127 49.8 41.3967 49.696 41.3967 49.568C41.3967 49.44 41.4127 49.34 41.4447 49.268C41.4687 49.188 41.5327 49.148 41.6367 49.148V50ZM45.3207 50V49.148C45.4247 49.148 45.4887 49.188 45.5127 49.268C45.5447 49.34 45.5607 49.44 45.5607 49.568C45.5607 49.696 45.5447 49.8 45.5127 49.88C45.4887 49.96 45.4247 50 45.3207 50ZM45.3164 50V49.148H53.2724L52.4084 49.928V47.108C52.4084 46.604 52.3364 46.188 52.1924 45.86C52.0564 45.524 51.8484 45.272 51.5684 45.104C51.2964 44.936 50.9524 44.852 50.5364 44.852C50.1844 44.852 49.8564 44.912 49.5524 45.032C49.2564 45.144 48.9804 45.296 48.7244 45.488C48.4684 45.672 48.2284 45.88 48.0044 46.112C47.7884 46.336 47.5884 46.564 47.4044 46.796C47.2204 47.028 47.0524 47.24 46.9004 47.432L46.5884 46.58C46.8364 46.268 47.0884 45.96 47.3444 45.656C47.6004 45.352 47.8804 45.076 48.1844 44.828C48.4884 44.58 48.8324 44.38 49.2164 44.228C49.6004 44.076 50.0404 44 50.5364 44C51.1044 44 51.5684 44.096 51.9284 44.288C52.2964 44.48 52.5804 44.736 52.7804 45.056C52.9884 45.368 53.1324 45.704 53.2124 46.064C53.2924 46.424 53.3324 46.772 53.3324 47.108V50H45.3164ZM46.1084 49.148V41.396H47.0444V49.148H46.1084ZM45.3164 50C45.2124 50 45.1484 49.96 45.1244 49.88C45.0924 49.8 45.0764 49.696 45.0764 49.568C45.0764 49.44 45.0924 49.34 45.1244 49.268C45.1484 49.188 45.2124 49.148 45.3164 49.148V50Z" fill="#808080"/>
</svg>
