<svg width="75" height="64" viewBox="0 0 75 64" fill="none" xmlns="http://www.w3.org/2000/svg">
<path d="M28.698 22.4643L29.3944 22.2429L28.698 22.4643ZM27.6394 16.4548L28.3433 16.651L27.6394 16.4548ZM32.0601 11.8893L31.6245 11.3026H31.6245L32.0601 11.8893ZM27.7474 16.1151L28.4353 16.3615L27.7474 16.1151ZM31.5805 28.172L31.1669 28.7743H31.1669L31.5805 28.172ZM31.2978 27.962L30.8408 28.5322L31.2978 27.962ZM46.302 22.4643L45.6056 22.2429L46.302 22.4643ZM43.7022 27.962L44.1592 28.5322L43.7022 27.962ZM43.4195 28.172L43.8331 28.7743L43.4195 28.172ZM42.9399 11.8893L43.3755 11.3026L42.9399 11.8893ZM47.2526 16.1151L46.5647 16.3615L47.2526 16.1151ZM47.3606 16.4548L46.6567 16.651L47.3606 16.4548ZM37.6747 9.00327L37.6474 9.73348L37.6747 9.00327ZM37.3253 9.00327L37.3526 9.73348L37.3253 9.00327ZM35.5934 23.6822C35.1898 23.6822 34.8627 24.0093 34.8627 24.4129C34.8627 24.8164 35.1898 25.1436 35.5934 25.1436V23.6822ZM39.4066 25.1436C39.8102 25.1436 40.1373 24.8164 40.1373 24.4129C40.1373 24.0093 39.8102 23.6822 39.4066 23.6822V25.1436ZM29.3944 22.2429C28.9041 20.7009 28.5546 19.5983 28.3712 18.7029C28.1911 17.8239 28.1868 17.2123 28.3433 16.651L26.9355 16.2586C26.694 17.1252 26.7335 17.9911 26.9395 18.9963C27.1421 19.9851 27.5208 21.1733 28.0017 22.6857L29.3944 22.2429ZM31.6245 11.3026C30.3661 12.237 29.375 12.9717 28.6412 13.6511C27.8943 14.3425 27.3629 15.0214 27.0594 15.8688L28.4353 16.3615C28.6311 15.8146 28.9849 15.3245 29.634 14.7235C30.2962 14.1104 31.2118 13.4293 32.4957 12.476L31.6245 11.3026ZM28.3433 16.651C28.3705 16.5533 28.4012 16.4568 28.4353 16.3615L27.0594 15.8688C27.0135 15.9972 26.9721 16.1272 26.9355 16.2586L28.3433 16.651ZM37.5 28.2693C35.9125 28.2693 34.7813 28.2683 33.8943 28.1702C33.0252 28.0741 32.462 27.8909 31.9942 27.5696L31.1669 28.7743C31.9048 29.2811 32.7301 29.5118 33.7337 29.6228C34.7194 29.7317 35.945 29.7307 37.5 29.7307V28.2693ZM28.0017 22.6857C28.4825 24.198 28.8594 25.3869 29.2643 26.3089C29.6758 27.2456 30.143 27.973 30.8408 28.5322L31.7548 27.3918C31.3095 27.035 30.9623 26.5407 30.6024 25.7212C30.236 24.8869 29.8847 23.785 29.3944 22.2429L28.0017 22.6857ZM31.9942 27.5696C31.9123 27.5134 31.8324 27.4541 31.7548 27.3918L30.8408 28.5322C30.9466 28.6169 31.0553 28.6977 31.1669 28.7743L31.9942 27.5696ZM45.6056 22.2429C45.1153 23.785 44.764 24.8869 44.3976 25.7212C44.0377 26.5407 43.6905 27.035 43.2452 27.3918L44.1592 28.5322C44.857 27.973 45.3242 27.2456 45.7357 26.3089C46.1406 25.3869 46.5175 24.198 46.9983 22.6857L45.6056 22.2429ZM37.5 29.7307C39.055 29.7307 40.2806 29.7317 41.2663 29.6228C42.2699 29.5118 43.0952 29.2811 43.8331 28.7743L43.0058 27.5696C42.538 27.8909 41.9748 28.0741 41.1057 28.1702C40.2187 28.2683 39.0875 28.2693 37.5 28.2693V29.7307ZM43.2452 27.3918C43.1676 27.4541 43.0877 27.5134 43.0058 27.5696L43.8331 28.7743C43.9447 28.6977 44.0534 28.6169 44.1592 28.5322L43.2452 27.3918ZM42.5043 12.476C43.7882 13.4293 44.7038 14.1104 45.366 14.7235C46.0151 15.3245 46.3689 15.8146 46.5647 16.3615L47.9406 15.8688C47.6371 15.0214 47.1057 14.3425 46.3588 13.6511C45.625 12.9717 44.6339 12.237 43.3755 11.3026L42.5043 12.476ZM46.9983 22.6857C47.4792 21.1733 47.8579 19.9851 48.0605 18.9963C48.2665 17.9911 48.306 17.1252 48.0645 16.2586L46.6567 16.651C46.8132 17.2123 46.8089 17.8239 46.6288 18.7029C46.4454 19.5983 46.0959 20.7009 45.6056 22.2429L46.9983 22.6857ZM46.5647 16.3615C46.5988 16.4568 46.6295 16.5533 46.6567 16.651L48.0645 16.2586C48.0279 16.1272 47.9865 15.9972 47.9406 15.8688L46.5647 16.3615ZM43.3755 11.3026C42.1173 10.3684 41.1271 9.63187 40.2678 9.12834C39.3937 8.6162 38.5932 8.30648 37.7021 8.27307L37.6474 9.73348C38.208 9.7545 38.7689 9.94392 39.5289 10.3893C40.3037 10.8432 41.2202 11.5225 42.5043 12.476L43.3755 11.3026ZM32.4957 12.476C33.7798 11.5225 34.6963 10.8432 35.4711 10.3893C36.2311 9.94392 36.792 9.7545 37.3526 9.73348L37.2979 8.27307C36.4068 8.30648 35.6063 8.6162 34.7322 9.12834C33.8729 9.63187 32.8827 10.3684 31.6245 11.3026L32.4957 12.476ZM37.7021 8.27307C37.5674 8.26802 37.4326 8.26802 37.2979 8.27307L37.3526 9.73348C37.4508 9.72979 37.5492 9.72979 37.6474 9.73348L37.7021 8.27307ZM35.5934 25.1436H39.4066V23.6822H35.5934V25.1436Z" fill="#808080"/>
<path d="M21.8357 50C21.1397 50 20.5957 49.896 20.2037 49.688C19.8197 49.472 19.5477 49.144 19.3877 48.704C19.2357 48.256 19.1597 47.688 19.1597 47C19.1597 46.312 19.2357 45.748 19.3877 45.308C19.5477 44.86 19.8197 44.532 20.2037 44.324C20.5957 44.108 21.1397 44 21.8357 44H24.3197V49.52H23.3837V44.444L23.8637 44.852H21.8357C21.3717 44.852 21.0117 44.908 20.7557 45.02C20.5077 45.132 20.3357 45.344 20.2397 45.656C20.1437 45.96 20.0957 46.408 20.0957 47C20.0957 47.592 20.1437 48.044 20.2397 48.356C20.3357 48.66 20.5077 48.868 20.7557 48.98C21.0117 49.092 21.3717 49.148 21.8357 49.148H25.6157V50H21.8357ZM25.6157 50V49.148C25.7197 49.148 25.7837 49.188 25.8077 49.268C25.8397 49.34 25.8557 49.44 25.8557 49.568C25.8557 49.696 25.8397 49.8 25.8077 49.88C25.7837 49.96 25.7197 50 25.6157 50ZM20.6717 42.92V41.84H21.6077V42.92H20.6717ZM22.3157 42.92V41.84H23.2517V42.92H22.3157ZM27.8492 50V49.148H29.1452V50H27.8492ZM29.1452 50V49.148C29.2492 49.148 29.3132 49.188 29.3372 49.268C29.3692 49.34 29.3852 49.44 29.3852 49.568C29.3852 49.696 29.3692 49.8 29.3372 49.88C29.3132 49.96 29.2492 50 29.1452 50ZM25.6172 50V49.148H27.3452L26.9132 49.496V44H27.8492V50H25.6172ZM25.6172 50C25.5132 50 25.4492 49.96 25.4252 49.88C25.3932 49.8 25.3772 49.696 25.3772 49.568C25.3772 49.44 25.3932 49.34 25.4252 49.268C25.4492 49.188 25.5132 49.148 25.6172 49.148V50ZM26.0972 52.16V51.08H27.0332V52.16H26.0972ZM27.7412 52.16V51.08H28.6772V52.16H27.7412ZM38.1685 50V49.148H39.4645V50H38.1685ZM35.4565 50C35.1845 50 34.9165 49.948 34.6525 49.844C34.3965 49.74 34.1485 49.576 33.9085 49.352L34.5205 48.716C34.7045 48.868 34.8685 48.98 35.0125 49.052C35.1565 49.116 35.3045 49.148 35.4565 49.148H37.5925L37.2325 49.532V46.664C37.2325 46.52 37.2165 46.316 37.1845 46.052C37.1605 45.788 37.1205 45.492 37.0645 45.164C37.0165 44.828 36.9565 44.492 36.8845 44.156L37.7965 44C37.8525 44.28 37.9085 44.592 37.9645 44.936C38.0205 45.28 38.0685 45.608 38.1085 45.92C38.1485 46.224 38.1685 46.472 38.1685 46.664V50H35.4565ZM29.1445 50V49.148H30.8965L30.6565 49.388V45.2H31.5805V50H29.1445ZM31.5805 50V49.148H32.9365C33.2085 49.148 33.4125 49.108 33.5485 49.028C33.6925 48.948 33.7925 48.788 33.8485 48.548C33.9045 48.308 33.9325 47.956 33.9325 47.492V44.6H34.8685V47.492C34.8685 48.116 34.8005 48.612 34.6645 48.98C34.5365 49.348 34.3325 49.612 34.0525 49.772C33.7725 49.924 33.4005 50 32.9365 50H31.5805ZM29.1445 50C29.0405 50 28.9765 49.96 28.9525 49.88C28.9205 49.8 28.9045 49.696 28.9045 49.568C28.9045 49.44 28.9205 49.34 28.9525 49.268C28.9765 49.188 29.0405 49.148 29.1445 49.148V50ZM39.4645 50V49.148C39.5685 49.148 39.6325 49.188 39.6565 49.268C39.6885 49.34 39.7045 49.44 39.7045 49.568C39.7045 49.696 39.6885 49.8 39.6565 49.88C39.6325 49.96 39.5685 50 39.4645 50ZM41.7008 50V49.148H42.9967V50H41.7008ZM42.9967 50V49.148C43.1008 49.148 43.1648 49.188 43.1888 49.268C43.2208 49.34 43.2368 49.44 43.2368 49.568C43.2368 49.696 43.2208 49.8 43.1888 49.88C43.1648 49.96 43.1008 50 42.9967 50ZM39.4688 50V49.148H41.1968L40.7648 49.496V44H41.7008V50H39.4688ZM39.4688 50C39.3647 50 39.3007 49.96 39.2767 49.88C39.2447 49.8 39.2287 49.696 39.2287 49.568C39.2287 49.44 39.2447 49.34 39.2767 49.268C39.3007 49.188 39.3647 49.148 39.4688 49.148V50ZM39.9488 52.16V51.08H40.8848V52.16H39.9488ZM41.5928 52.16V51.08H42.5288V52.16H41.5928ZM42.9961 50V49.148H44.7241L44.2921 49.496V44H45.2281V50H42.9961ZM42.9961 50C42.8921 50 42.8281 49.96 42.8041 49.88C42.7721 49.8 42.7561 49.696 42.7561 49.568C42.7561 49.44 42.7721 49.34 42.8041 49.268C42.8281 49.188 42.8921 49.148 42.9961 49.148V50ZM44.1961 42.92C44.0681 42.76 43.9681 42.604 43.8961 42.452C43.8321 42.3 43.8001 42.14 43.8001 41.972C43.8001 41.74 43.8561 41.532 43.9681 41.348C44.0881 41.164 44.2441 41.02 44.4361 40.916C44.6281 40.812 44.8361 40.76 45.0601 40.76C45.1881 40.76 45.3161 40.78 45.4441 40.82C45.5721 40.852 45.6841 40.9 45.7801 40.964L45.4681 41.504C45.4041 41.464 45.3401 41.44 45.2761 41.432C45.2201 41.416 45.1601 41.408 45.0961 41.408C44.9121 41.408 44.7641 41.46 44.6521 41.564C44.5481 41.668 44.4961 41.804 44.4961 41.972C44.4961 42.076 44.5161 42.176 44.5561 42.272C44.6041 42.368 44.6721 42.472 44.7601 42.584L44.1961 42.92ZM43.5721 42.92V42.284H45.9361V42.92H43.5721ZM48.2593 50V49.148H49.7953V50H48.2593ZM46.3033 52.652C46.1993 52.652 46.0913 52.644 45.9793 52.628C45.8593 52.62 45.7433 52.612 45.6313 52.604L45.7393 51.752C45.8513 51.76 45.9553 51.768 46.0513 51.776C46.1473 51.792 46.2313 51.8 46.3033 51.8C46.6793 51.8 46.9833 51.656 47.2153 51.368C47.4473 51.088 47.5633 50.696 47.5633 50.192V44H48.4993V50.192C48.4993 50.68 48.4033 51.108 48.2113 51.476C48.0273 51.852 47.7713 52.14 47.4433 52.34C47.1153 52.548 46.7353 52.652 46.3033 52.652ZM49.7953 50V49.148C49.8993 49.148 49.9633 49.188 49.9873 49.268C50.0193 49.34 50.0353 49.44 50.0353 49.568C50.0353 49.696 50.0193 49.8 49.9873 49.88C49.9633 49.96 49.8993 50 49.7953 50ZM51.245 50V41.396H52.181V50H51.245ZM49.793 50V49.148H51.245V50H49.793ZM49.793 50C49.689 50 49.625 49.96 49.601 49.88C49.569 49.8 49.553 49.696 49.553 49.568C49.553 49.44 49.569 49.34 49.601 49.268C49.625 49.188 49.689 49.148 49.793 49.148V50ZM54.2497 50V41.396H55.1737V50H54.2497Z" fill="#808080"/>
</svg>
