<svg width="75" height="64" viewBox="0 0 75 64" fill="none" xmlns="http://www.w3.org/2000/svg">
<path d="M33.1917 26.6161C33.7827 26.6161 34.0783 26.6161 34.3475 26.716C34.3849 26.7298 34.4217 26.7451 34.458 26.7617C34.719 26.8815 34.9279 27.0904 35.3459 27.5083C36.3078 28.4702 36.7887 28.9512 37.3805 28.9955C37.46 29.0015 37.54 29.0015 37.6195 28.9955C38.2113 28.9512 38.6923 28.4702 39.6541 27.5083C40.0721 27.0904 40.281 26.8815 40.542 26.7617C40.5783 26.7451 40.6151 26.7298 40.6525 26.716C40.9218 26.6161 41.2173 26.6161 41.8083 26.6161H41.9173C43.4252 26.6161 44.1792 26.6161 44.6476 26.1476C45.1161 25.6792 45.1161 24.9252 45.1161 23.4173V23.3083C45.1161 22.7173 45.1161 22.4218 45.216 22.1525C45.2298 22.1151 45.2451 22.0783 45.2617 22.042C45.3815 21.781 45.5904 21.5721 46.0083 21.1541C46.9702 20.1923 47.4512 19.7113 47.4955 19.1195C47.5015 19.04 47.5015 18.96 47.4955 18.8805C47.4512 18.2887 46.9702 17.8078 46.0083 16.8459C45.5904 16.4279 45.3815 16.219 45.2617 15.958C45.2451 15.9217 45.2298 15.8849 45.216 15.8475C45.1161 15.5783 45.1161 15.2827 45.1161 14.6917V14.5827C45.1161 13.0748 45.1161 12.3208 44.6476 11.8524C44.1792 11.3839 43.4252 11.3839 41.9173 11.3839H41.8083C41.2173 11.3839 40.9218 11.3839 40.6525 11.2841C40.6151 11.2702 40.5783 11.2549 40.542 11.2383C40.281 11.1185 40.0721 10.9096 39.6541 10.4917C38.6923 9.52977 38.2113 9.04882 37.6195 9.00447C37.54 8.99851 37.46 8.99851 37.3805 9.00447C36.7887 9.04882 36.3078 9.52977 35.3459 10.4917C34.9279 10.9096 34.719 11.1185 34.458 11.2383C34.4217 11.2549 34.3849 11.2702 34.3475 11.2841C34.0783 11.3839 33.7827 11.3839 33.1917 11.3839H33.0827C31.5748 11.3839 30.8208 11.3839 30.3524 11.8524C29.8839 12.3208 29.8839 13.0748 29.8839 14.5827V14.6917C29.8839 15.2827 29.8839 15.5783 29.7841 15.8475C29.7702 15.8849 29.7549 15.9217 29.7383 15.958C29.6185 16.219 29.4096 16.4279 28.9917 16.8459C28.0298 17.8078 27.5488 18.2887 27.5045 18.8805C27.4985 18.96 27.4985 19.04 27.5045 19.1195C27.5488 19.7113 28.0298 20.1923 28.9917 21.1541C29.4096 21.5721 29.6185 21.781 29.7383 22.042C29.7549 22.0783 29.7702 22.1151 29.7841 22.1525C29.8839 22.4218 29.8839 22.7173 29.8839 23.3083V23.4173C29.8839 24.9252 29.8839 25.6792 30.3524 26.1476C30.8208 26.6161 31.5748 26.6161 33.0827 26.6161H33.1917Z" stroke="#808080" stroke-width="1.5"/>
<path d="M40.5 16L34.5 22" stroke="#808080" stroke-width="1.5" stroke-linecap="round" stroke-linejoin="round"/>
<path d="M40.5 22H40.4892M34.5108 16H34.5" stroke="#808080" stroke-width="2" stroke-linecap="round" stroke-linejoin="round"/>
<path d="M15.6807 50C14.4887 50 13.5967 49.792 13.0047 49.376C12.4127 48.96 12.1167 48.316 12.1167 47.444C12.1167 47.252 12.1287 47.044 12.1527 46.82C12.1847 46.596 12.2207 46.38 12.2607 46.172C12.3007 45.956 12.3367 45.772 12.3687 45.62C12.4007 45.46 12.4207 45.352 12.4287 45.296L13.3407 45.464C13.3167 45.592 13.2807 45.768 13.2327 45.992C13.1927 46.216 13.1527 46.456 13.1127 46.712C13.0727 46.968 13.0527 47.212 13.0527 47.444C13.0527 47.844 13.1367 48.172 13.3047 48.428C13.4727 48.676 13.7487 48.86 14.1327 48.98C14.5167 49.092 15.0327 49.148 15.6807 49.148H19.2087V44H20.1447V50H15.6807ZM14.8527 44.084V43.004H15.7887V44.084H14.8527ZM16.4967 44.084V43.004H17.4327V44.084H16.4967ZM23.1932 50V49.148H24.6572V50H23.1932ZM22.2692 50V41.396H23.1932V50H22.2692ZM24.6572 50V49.148C24.7612 49.148 24.8252 49.188 24.8492 49.268C24.8812 49.34 24.8972 49.44 24.8972 49.568C24.8972 49.696 24.8812 49.8 24.8492 49.88C24.8252 49.96 24.7612 50 24.6572 50ZM33.5963 50V49.148H34.8923V50H33.5963ZM24.6562 50V49.148H33.5243L32.6603 49.928V47.108C32.6603 46.604 32.5883 46.188 32.4443 45.86C32.3083 45.524 32.1003 45.272 31.8203 45.104C31.5483 44.936 31.2043 44.852 30.7883 44.852C30.4363 44.852 30.1083 44.912 29.8043 45.032C29.5083 45.144 29.2323 45.296 28.9763 45.488C28.7203 45.672 28.4803 45.88 28.2563 46.112C28.0403 46.336 27.8403 46.564 27.6562 46.796C27.4723 47.028 27.3043 47.24 27.1523 47.432L26.8523 46.58C27.0523 46.332 27.2523 46.084 27.4523 45.836C27.6603 45.588 27.8763 45.356 28.1003 45.14C28.3243 44.916 28.5683 44.72 28.8323 44.552C29.1043 44.384 29.4003 44.252 29.7203 44.156C30.0403 44.052 30.4003 44 30.8003 44C31.3683 44 31.8323 44.096 32.1923 44.288C32.5603 44.48 32.8443 44.736 33.0443 45.056C33.2523 45.368 33.3963 45.704 33.4763 46.064C33.5563 46.424 33.5963 46.772 33.5963 47.108V50H24.6562ZM26.3603 49.148V44H27.2963V49.148H26.3603ZM24.6562 50C24.5522 50 24.4882 49.96 24.4642 49.88C24.4322 49.8 24.4162 49.696 24.4162 49.568C24.4162 49.44 24.4322 49.34 24.4642 49.268C24.4882 49.188 24.5522 49.148 24.6562 49.148V50ZM34.8923 50V49.148C34.9963 49.148 35.0603 49.188 35.0843 49.268C35.1163 49.34 35.1323 49.44 35.1323 49.568C35.1323 49.696 35.1163 49.8 35.0843 49.88C35.0603 49.96 34.9963 50 34.8923 50ZM29.6363 42.932V41.852H30.5723V42.932H29.6363ZM37.1187 50V49.148H38.4147V50H37.1187ZM38.4147 50V49.148C38.5187 49.148 38.5827 49.188 38.6067 49.268C38.6387 49.34 38.6547 49.44 38.6547 49.568C38.6547 49.696 38.6387 49.8 38.6067 49.88C38.5827 49.96 38.5187 50 38.4147 50ZM34.8867 50V49.148H36.6147L36.1827 49.496V44H37.1187V50H34.8867ZM34.8867 50C34.7827 50 34.7187 49.96 34.6947 49.88C34.6627 49.8 34.6467 49.696 34.6467 49.568C34.6467 49.44 34.6627 49.34 34.6947 49.268C34.7187 49.188 34.7827 49.148 34.8867 49.148V50ZM35.3667 52.16V51.08H36.3027V52.16H35.3667ZM37.0107 52.16V51.08H37.9467V52.16H37.0107ZM44.7861 50V49.148H46.0821V50H44.7861ZM38.4141 50V49.148H44.4741L43.8501 49.688V44.444L44.3421 44.852H42.3021C41.8381 44.852 41.4781 44.908 41.2221 45.02C40.9741 45.132 40.8021 45.344 40.7061 45.656C40.6101 45.96 40.5621 46.408 40.5621 47C40.5621 47.592 40.6101 48.044 40.7061 48.356C40.8021 48.66 40.9741 48.868 41.2221 48.98C41.4781 49.092 41.8381 49.148 42.3021 49.148V49.76C41.6061 49.76 41.0621 49.676 40.6701 49.508C40.2861 49.332 40.0141 49.044 39.8541 48.644C39.7021 48.236 39.6261 47.688 39.6261 47C39.6261 46.312 39.7021 45.748 39.8541 45.308C40.0141 44.86 40.2861 44.532 40.6701 44.324C41.0621 44.108 41.6061 44 42.3021 44H44.7861V50H38.4141ZM38.4141 50C38.3101 50 38.2461 49.96 38.2221 49.88C38.1901 49.8 38.1741 49.696 38.1741 49.568C38.1741 49.44 38.1901 49.34 38.2221 49.268C38.2461 49.188 38.3101 49.148 38.4141 49.148V50ZM46.0821 50V49.148C46.1861 49.148 46.2501 49.188 46.2741 49.268C46.3061 49.34 46.3221 49.44 46.3221 49.568C46.3221 49.696 46.3061 49.8 46.2741 49.88C46.2501 49.96 46.1861 50 46.0821 50ZM42.0141 42.92V41.84H42.9501V42.92H42.0141ZM52.0181 50V49.148H53.3141V50H52.0181ZM46.0781 50V49.148H51.3701L51.0821 49.4V46.424C51.0821 45.904 50.9181 45.516 50.5901 45.26C50.2701 44.996 49.7781 44.864 49.1141 44.864C48.9061 44.864 48.6061 44.884 48.2141 44.924C47.8221 44.956 47.4101 45.004 46.9781 45.068L46.8701 44.3C47.1981 44.22 47.5581 44.152 47.9501 44.096C48.3421 44.032 48.7221 44 49.0901 44C49.6981 44 50.2181 44.096 50.6501 44.288C51.0901 44.472 51.4261 44.744 51.6581 45.104C51.8981 45.464 52.0181 45.904 52.0181 46.424V50H46.0781ZM46.0781 50C45.9741 50 45.9101 49.96 45.8861 49.88C45.8541 49.8 45.8381 49.696 45.8381 49.568C45.8381 49.44 45.8541 49.34 45.8861 49.268C45.9101 49.188 45.9741 49.148 46.0781 49.148V50ZM53.3141 50V49.148C53.4181 49.148 53.4821 49.188 53.5061 49.268C53.5381 49.34 53.5541 49.44 53.5541 49.568C53.5541 49.696 53.5381 49.8 53.5061 49.88C53.4821 49.96 53.4181 50 53.3141 50ZM48.6221 43.172V42.092H49.5581V43.172H48.6221ZM55.5406 50V49.148H56.8366V50H55.5406ZM56.8366 50V49.148C56.9406 49.148 57.0046 49.188 57.0286 49.268C57.0606 49.34 57.0766 49.44 57.0766 49.568C57.0766 49.696 57.0606 49.8 57.0286 49.88C57.0046 49.96 56.9406 50 56.8366 50ZM53.3086 50V49.148H55.0366L54.6046 49.496V44H55.5406V50H53.3086ZM53.3086 50C53.2046 50 53.1406 49.96 53.1166 49.88C53.0846 49.8 53.0686 49.696 53.0686 49.568C53.0686 49.44 53.0846 49.34 53.1166 49.268C53.1406 49.188 53.2046 49.148 53.3086 49.148V50ZM53.7886 42.92V41.84H54.7246V42.92H53.7886ZM55.4326 42.92V41.84H56.3686V42.92H55.4326ZM58.2879 50V41.396H59.2239V50H58.2879ZM56.8359 50V49.148H58.2879V50H56.8359ZM56.8359 50C56.7319 50 56.6679 49.96 56.6439 49.88C56.6119 49.8 56.5959 49.696 56.5959 49.568C56.5959 49.44 56.6119 49.34 56.6439 49.268C56.6679 49.188 56.7319 49.148 56.8359 49.148V50ZM61.2926 50V41.396H62.2166V50H61.2926Z" fill="#808080"/>
</svg>
